<mxfile host="Electron" agent="Mozilla/5.0 (Windows NT 10.0; Win64; x64) AppleWebKit/537.36 (KHTML, like Gecko) draw.io/24.7.17 Chrome/128.0.6613.36 Electron/32.0.1 Safari/537.36" version="24.7.17">
  <diagram name="페이지-1" id="sBSDvjrOaG3VijFEr5zD">
    <mxGraphModel dx="989" dy="610" grid="1" gridSize="10" guides="1" tooltips="1" connect="1" arrows="1" fold="1" page="1" pageScale="1" pageWidth="827" pageHeight="1169" math="0" shadow="0">
      <root>
        <mxCell id="0" />
        <mxCell id="1" parent="0" />
        <mxCell id="v4DfZ5meOXefyViQToht-5" style="edgeStyle=orthogonalEdgeStyle;rounded=0;orthogonalLoop=1;jettySize=auto;html=1;exitX=0.5;exitY=1;exitDx=0;exitDy=0;" edge="1" parent="1" source="v4DfZ5meOXefyViQToht-1">
          <mxGeometry relative="1" as="geometry">
            <mxPoint x="100" y="480" as="targetPoint" />
          </mxGeometry>
        </mxCell>
        <mxCell id="v4DfZ5meOXefyViQToht-1" value="&lt;div&gt;Untracked&lt;/div&gt;&lt;div style=&quot;font-size: 5px;&quot;&gt;&lt;br&gt;&lt;/div&gt;추적되지 않음" style="rounded=1;whiteSpace=wrap;html=1;fontStyle=1;fillColor=#F0F6FF;strokeColor=#6c8ebf;" vertex="1" parent="1">
          <mxGeometry x="40" y="160" width="120" height="60" as="geometry" />
        </mxCell>
        <mxCell id="v4DfZ5meOXefyViQToht-6" style="edgeStyle=orthogonalEdgeStyle;rounded=0;orthogonalLoop=1;jettySize=auto;html=1;exitX=0.5;exitY=1;exitDx=0;exitDy=0;" edge="1" parent="1">
          <mxGeometry relative="1" as="geometry">
            <mxPoint x="300" y="480" as="targetPoint" />
            <mxPoint x="300" y="220" as="sourcePoint" />
          </mxGeometry>
        </mxCell>
        <mxCell id="v4DfZ5meOXefyViQToht-7" style="edgeStyle=orthogonalEdgeStyle;rounded=0;orthogonalLoop=1;jettySize=auto;html=1;exitX=0.5;exitY=1;exitDx=0;exitDy=0;" edge="1" parent="1">
          <mxGeometry relative="1" as="geometry">
            <mxPoint x="500" y="480" as="targetPoint" />
            <mxPoint x="499.9999999999998" y="220" as="sourcePoint" />
          </mxGeometry>
        </mxCell>
        <mxCell id="v4DfZ5meOXefyViQToht-8" style="edgeStyle=orthogonalEdgeStyle;rounded=0;orthogonalLoop=1;jettySize=auto;html=1;exitX=0.5;exitY=1;exitDx=0;exitDy=0;" edge="1" parent="1">
          <mxGeometry relative="1" as="geometry">
            <mxPoint x="700" y="480" as="targetPoint" />
            <mxPoint x="699.9999999999998" y="220" as="sourcePoint" />
          </mxGeometry>
        </mxCell>
        <mxCell id="v4DfZ5meOXefyViQToht-9" value="&lt;div style=&quot;&quot;&gt;&lt;br&gt;&lt;/div&gt;" style="shape=flexArrow;endArrow=classic;html=1;rounded=0;endWidth=28.8;endSize=8.979310344827587;width=21.379310344827587;fillColor=#f5f5f5;gradientColor=#b3b3b3;strokeColor=#666666;gradientDirection=east;labelBackgroundColor=none;align=center;" edge="1" parent="1">
          <mxGeometry width="50" height="50" relative="1" as="geometry">
            <mxPoint x="100" y="260" as="sourcePoint" />
            <mxPoint x="700" y="260" as="targetPoint" />
          </mxGeometry>
        </mxCell>
        <mxCell id="v4DfZ5meOXefyViQToht-11" value="&lt;div style=&quot;&quot;&gt;&lt;br&gt;&lt;/div&gt;" style="shape=flexArrow;endArrow=classic;html=1;rounded=0;endWidth=28.8;endSize=8.979310344827587;width=21.379310344827587;fillColor=#f5f5f5;gradientColor=#b3b3b3;strokeColor=#666666;gradientDirection=east;labelBackgroundColor=none;align=center;" edge="1" parent="1">
          <mxGeometry width="50" height="50" relative="1" as="geometry">
            <mxPoint x="300" y="320" as="sourcePoint" />
            <mxPoint x="500" y="320" as="targetPoint" />
          </mxGeometry>
        </mxCell>
        <mxCell id="v4DfZ5meOXefyViQToht-12" value="&lt;div style=&quot;&quot;&gt;&lt;br&gt;&lt;/div&gt;" style="shape=flexArrow;endArrow=classic;html=1;rounded=0;endWidth=28.8;endSize=8.979310344827587;width=21.379310344827587;fillColor=#f5f5f5;gradientColor=#b3b3b3;strokeColor=#666666;gradientDirection=east;labelBackgroundColor=none;align=center;" edge="1" parent="1">
          <mxGeometry width="50" height="50" relative="1" as="geometry">
            <mxPoint x="500" y="370" as="sourcePoint" />
            <mxPoint x="700" y="370" as="targetPoint" />
          </mxGeometry>
        </mxCell>
        <mxCell id="v4DfZ5meOXefyViQToht-13" value="&lt;div style=&quot;&quot;&gt;&lt;br&gt;&lt;/div&gt;" style="shape=flexArrow;endArrow=classic;html=1;rounded=0;endWidth=28.8;endSize=8.979310344827587;width=21.379310344827587;fillColor=#f5f5f5;gradientColor=#b3b3b3;strokeColor=#666666;gradientDirection=west;labelBackgroundColor=none;align=center;" edge="1" parent="1">
          <mxGeometry width="50" height="50" relative="1" as="geometry">
            <mxPoint x="700" y="440" as="sourcePoint" />
            <mxPoint x="300" y="440" as="targetPoint" />
          </mxGeometry>
        </mxCell>
        <mxCell id="v4DfZ5meOXefyViQToht-14" value="&lt;div style=&quot;&quot;&gt;&lt;br&gt;&lt;/div&gt;" style="shape=flexArrow;endArrow=classic;html=1;rounded=0;endWidth=28.8;endSize=8.979310344827587;width=21.379310344827587;fillColor=#f5f5f5;gradientColor=#b3b3b3;strokeColor=#666666;gradientDirection=west;labelBackgroundColor=none;align=center;" edge="1" parent="1">
          <mxGeometry width="50" height="50" relative="1" as="geometry">
            <mxPoint x="300" y="390" as="sourcePoint" />
            <mxPoint x="100" y="390" as="targetPoint" />
          </mxGeometry>
        </mxCell>
        <mxCell id="v4DfZ5meOXefyViQToht-15" value="&lt;div&gt;Unmodified&lt;/div&gt;&lt;div style=&quot;font-size: 5px;&quot;&gt;&lt;br&gt;&lt;/div&gt;수정 전" style="rounded=1;whiteSpace=wrap;html=1;fontStyle=1;fillColor=#ebf3ff;strokeColor=#6c8ebf;" vertex="1" parent="1">
          <mxGeometry x="240" y="160" width="120" height="60" as="geometry" />
        </mxCell>
        <mxCell id="v4DfZ5meOXefyViQToht-17" value="&lt;div&gt;Modified&lt;/div&gt;&lt;div style=&quot;font-size: 5px;&quot;&gt;&lt;br&gt;&lt;/div&gt;수정 됨" style="rounded=1;whiteSpace=wrap;html=1;fontStyle=1;fillColor=#dbeaff;strokeColor=#6c8ebf;" vertex="1" parent="1">
          <mxGeometry x="440" y="160" width="120" height="60" as="geometry" />
        </mxCell>
        <mxCell id="v4DfZ5meOXefyViQToht-18" value="&lt;div&gt;Staged&lt;/div&gt;&lt;div style=&quot;font-size: 5px;&quot;&gt;&lt;br&gt;&lt;/div&gt;스테이지에 올라옴" style="rounded=1;whiteSpace=wrap;html=1;fontStyle=1;fillColor=#b8d5ff;strokeColor=#6c8ebf;" vertex="1" parent="1">
          <mxGeometry x="640" y="160" width="120" height="60" as="geometry" />
        </mxCell>
        <mxCell id="v4DfZ5meOXefyViQToht-19" value="① 새 파일을 스테이지에 올림" style="text;strokeColor=none;align=center;fillColor=none;html=1;verticalAlign=middle;whiteSpace=wrap;rounded=0;fontStyle=1" vertex="1" parent="1">
          <mxGeometry x="91" y="246" width="190" height="30" as="geometry" />
        </mxCell>
        <mxCell id="v4DfZ5meOXefyViQToht-20" value="③ 파일 수정" style="text;strokeColor=none;align=center;fillColor=none;html=1;verticalAlign=middle;whiteSpace=wrap;rounded=0;fontStyle=1" vertex="1" parent="1">
          <mxGeometry x="289" y="305" width="103" height="30" as="geometry" />
        </mxCell>
        <mxCell id="v4DfZ5meOXefyViQToht-22" value="⑤ 삭제" style="text;strokeColor=none;align=center;fillColor=none;html=1;verticalAlign=middle;whiteSpace=wrap;rounded=0;fontStyle=1" vertex="1" parent="1">
          <mxGeometry x="223" y="375" width="103" height="30" as="geometry" />
        </mxCell>
        <mxCell id="v4DfZ5meOXefyViQToht-23" value="② commit" style="text;strokeColor=none;align=center;fillColor=none;html=1;verticalAlign=middle;whiteSpace=wrap;rounded=0;fontStyle=1" vertex="1" parent="1">
          <mxGeometry x="607" y="425" width="103" height="30" as="geometry" />
        </mxCell>
        <mxCell id="v4DfZ5meOXefyViQToht-24" value="④ 수정된 파일을 스테이지에 올림" style="text;strokeColor=none;align=center;fillColor=none;html=1;verticalAlign=middle;whiteSpace=wrap;rounded=0;fontStyle=1" vertex="1" parent="1">
          <mxGeometry x="498" y="355" width="192" height="30" as="geometry" />
        </mxCell>
        <mxCell id="v4DfZ5meOXefyViQToht-26" value="" style="shape=image;verticalLabelPosition=bottom;labelBackgroundColor=default;verticalAlign=top;aspect=fixed;imageAspect=0;image=data:image/png,iVBORw0KGgoAAAANSUhEUgAABNkAAAEVCAYAAADdOjOPAAAAAXNSR0IArs4c6QAAAARnQU1BAACxjwv8YQUAAAAJcEhZcwAAFxEAABcRAcom8z8AAJXcSURBVHhe7b151C1XWa8b05EGwSsooHjwDBTs7m6y09A59PxhA4pKyN47LdGrnjPOwQaJIS2NR4WDApqQmGbvJCAKnjOGSJN27y0iiAgKAiEExF6wA+4f99pc9Xrrvs/3fe/+3jW/WbVm1apaq9Zav2eM30j2WlWz5qxV7fPNWXWCUSmKoiiKoiiKoiiKoiiK0jn/myX7haIoiqIoiqIoiqIoiqIoZdmWbJ/61KcURVGUkeWLvuiLqk9+8pPZ7xSla0488cTq4Ycfzn6nKIoyz5x66qnVgw8+mP1OURRlnjnzzDOrD3/4w9nvFKUpj370oyXZFEVRliGSbMoQkWRTFGUskWRTFGUskWRTukaSTVEUZUkiyaYMEUk2RVHGEkk2RVHGEkk2pWsk2RRFUZYkkmzKEJFkUxRlLJFkUxRlLJFkU7pGkk1RFGVJIsmmDBFJNkVRxhJJNkVRxhJJNqVrJNkURVGWJJJsyhCRZFMUZSyRZFMUZSyRZFO6RpJNWfIcqa7du7ndnnDCwepQdpqYI9Whg3urvVvbOtm792B17aEjmWk3p29XvqIMl9WXbEeq6876ouqLNva3A9XtD/fdVso/cbP8vddU9/e6LkPZW3X/ZHa68UWSTVGUsUSSTVGUsUSSTekaSTZlJDlUHdza/opy8NDWfC0k2BFbxvFpd2bv8TJjJNmU8WRpJNuhC6sTra7pPrYzqUgrlGyl5R+4vXp4Yn21kWxHqsPXXVidZfXx8vbutTo9UCfPJNkURVFmjSSboihjiSSb0jWSbMpIMrRki9PtrQ4e77m22bPNy917bdqjTZJNGU8k2bYyuGSLwmxnDtz+sP0OTfNIsilTcvii6qQTt7bhPVdX931iyvo/en119klsX3uqA7d+wrbrzDSrFNp78kkb7d1v7f3EqrdXOR5JNkVRxpKFSLZjL6+eccYjqpNO2FWd//qPVB/7xObnx17+jOqMR5y0ed1w/uurD33sEzvnVUYTSTZltDly7bb8OngoP02pBItltRNpkmzKeLKMkm3vNQ/sEFKHLjzR2uL7VV0aJFtTjlxXneUCDsn2wLXVWS4zYhok25HrzrL6b06395rbqweY7sjhIAD3Vtfcn0o0Sbb5xdb1vhOP/0YnHLit+kR2WzlcXbQhpqZMZ9vMvuPTHahu+8TDw/92LSXb4YtOrk7y9m5NP87t63B18cknVSf6Ok+zZ0+1Z++B6prb7k8E+GQOX2ztPdHnuaq6d7TtVfqOJNuK5+jR6o7rL6nOOduOE76PW3bvvqC66pZ7a47lirKYzC7Z7qxecOZp1Sl+DsxmV/WTb/tI9fGHN+e58wWPrE47Zeu7XVdUb/vIx6uH7fOFSLZjx6q7XnZZdd45p1QnneT1PaHatev86iU33109+JD+QFsXSTZltOlTsh062DxN/bIk2ZTxRJKtIDNLtsPVhTb9hnBJp6FsL6upl5wk2+A5fJHdoAXpdP9Uebb5u2QFWhRetcKu56yrZJsIvdTuqz6R2Q+XQbIdPXq4uu6ifdVJB2+rPv6JOWwzaxJJttXN0ZdeWp075fiw+yXvrB4M+9PRo3dU119yTnXywVuqj35cN/TKfLPOku3YKy6vnv6IU6qTJuo6mV1X/Eb1hw9u75fHjt1Vveyy86pHHLy5+oOPPjRR3izZLPdp1WkHb6p+v8dyh4wkmzLSRLllN+o7ep/lpquTYGGavddWR3LTHDp4fFn1kWRTFpvVk2ypSENULXa4aOzFlhsWejip+/aNvyTbXBMlVY08O3LdvjAN2VNdfd/O6aKwO3DbnIZiruxw0TaSbTP7b31o53DQkQ8XPXq93fSftPX77b9Fkq3HSLKtaO64tDrtlC1B0JAo2Y6+1G7WTz5x87sLbpZkU+aeRUi2UQwXvesF1ReffkpSz52Jku3YK55ZnXm8fjf2Jtko95Gnebk3SLIpykzZIb0KBNpE9lbXHslMI8mmLHEk2bYyoGTblmi5IaGWw9vLnpRwkmzzzeRQ0Jwcm+jttpU9V9+XTGe/2z6fLi/hBklbybY0iZLN1ue98Xc5Wh09fF11URzqu5H91a0PfWJp9hciyTZcJNlWM3dcelp1yvHhZrurC26+p/p4OMd7j7Wzr7lHkk0ZTfqVbIlMa5l5Sra7XvDF1enemw7Zd+M7qo+GoaHeY+2cq98hyVYTSTZlhKl5CcLUt3/GRMmm4aLKakSSbSuh/A3RlZsmm2mSrUCUBcm295r7JdkWFuTYtqzZczXP+Irfb0u4PQcOVHvtN9v4bXYMBw2yDtlVt831nbWUbNs5fPHZE70M91y9XM9ikmQbLpJsq5ij1UvPe0R18tYQ8HRIaF0k2ZRFZz0l27Hq5c88s3rElhRPh4TWRZJtMpJsyrhy5FB1MEqzvQcn/r13h2grk2B68YGyCtEz2bbSRrLF56jFTJNsNT3dasubiCTbPMJw0BODqJp4LluQWAduu606aG10AToxtDTKrtzz2I4cqQ5fuK/ah/w9vs3uqfYcuKa67YGchE3Ls23qIqsn2+uGTNsqv0myHR8aurk8et/df20Y+nrg1uqhpK3Hhc9WWUfss/g8uj37WT/5feXo4esnepcx7X027cZz4LZuiqlDmQQrk2zcdF9/9snHl0m943PXjl5/dpBY1t7j6+3i6hRrl3/+8U88UF3vwo5ntz0U23h0Q+bts+98PfDihf1X37axreTWxcY819u6s/Vx/Pe2ea66jR6Qn5yUa5nsv+Xjk0Nbj1p5F1kd0u3H1vGt91td03VD+1wqbMi72D6bz2WxZc9V90xuBxu5o7r4VFuvW8u56p6Hatb/eCPJtpqZ6Mm2+4Lq5gc3nzOVm3ZCrmVywc0fnRQV2Zcp7K52X3BLdc/Ha457d7ysuoSHubv4u+BKm/ah6rDV89Steu6+8p3Vgw+l+5gt69Jzq3PsOHR8WPzu3dUFV92SHH+UVcgiJFudTJsu2Y5Vd77g6dV5p5y0/Ry1Xbuq819yc3X3x+1cPDFtcyZ6su06v7rxDz9aPZSZjkzItUzOv/EPqo8+FObJvkxhV7Xr/Juqd3zUzlmh3ONyLZPzb/j9jXKPveJZx6fb9eK3Vh+eEILHqlc865HVaVvLed7WPNvf2/x3vaK67Gnn2n4fl2X1ed5N1Yc/0l3oSbIpo8mRQwervcc3bsvxoZ1Jb7W9B6tDuaGgjRIsTre3uvaQi7Yj1aGDTS9YkGRTxhNJtq1IsvWaZZVsE6IqkWfbz2NjCOj91bU1Q0Ljc9t2DDlFVNl3xwVNJhvyKZnneJ0O3FbddjAMjSySbIerizaeRbZV/oFbN+QW0mm73GbJdus1Z21PG7O1nLhdTpSbTHv1Aav7YJJtS6QdX/bkkNFSyXbrQbuZ8JvqKNmOXl+dE9bjjuzJDFFtnGdPddW9D1UPXNdCslldzzl5W3Tmsueqe5PfclKy3XLw5OO9f2jfLVfvC7/1VdU96U39HRdXp4b5Hzy+XS1PJNlWNDueyba7uuAlt2RfatJKsh19aXXeI1wsZ7L7yuqdDz40sYyjL7PyT8mUb9NeeeCU4zJwh2Q7+jJb1ikNy7qguvlj9fJQWb4sjWQ7/hy3rW0xzYYo+1itKNuRHc9k21Wdf8XN1d22L6XbdyvJduwV1TPPbKrni6vf+MMHN5YxvGSb/G5HnndD9fuSbMqyJ/Y0I/RYm3x22qQMQ5RtCrEWEoxecsfn35n8yxUk2ZTxZBklW3NSkYbkcqlRJtmakz5XbZpEC9/XiTINFx1R4nPZ9lRX0zNo43P7LVyqIZbst4gyLT6Xbfu5bZPybeebSevCfEHWTMizyZ5Hm5Jra5vLSrYj1fX0xHApF2RasWSbEl4ycFx6JT3mmjKEZEMonWzL31zG5LRFkm3H+nXJZnWwm3mvw1W3bvZC2yg3LnOjJ5y3Kc6TS0vJNk3yHc9mucfXUZRsmfbdc9+11dlWz83PdvZUu+PiU45Luf23PGi/2fZ3yxJJttUNvdm8l1jM7gteUt0S9/8+JZtlcvopoixkUrLdUV162qlbcmB3deXN2z1Jj95xafWIU7dkgIa1rlTm8uKDRJi1l2y2jEeeflzkXXHjO+zctrkNHrvzBdUZLsvOv9HmKZdGd10en8u2nV3nX1HdfPeDtv1vTterZLOcf8Pm9INLtrsurx51xqmb5e16cXXD271Nx6q7XnFZ9bSLblFPNmU1siHa9h4Mvcwy0xy6tjq41wUbaSvBNmVd7DG3t3GZkmzKeCLJtpXi8rd6uh2/CZ0m2aa/+KD+7aOSbItIfLnB8eeyRUHmQ0Bzn0VJtyXjcuVuCKDbglA9EuVeLM++i/Jsq9zbsi/Q2CnZDsVlbn3m87WSbPtv3WgL8x5lOVZX/y7KsjgcdKONt7L++I4hk5M93AaRbEg+u5HeXI8dJBvZc1V1K3I0LCMO6dx/azJ8k2Gq51i7N9bz/urWj28K0sMXbw8boy77rwpDSo8erq6/6KLq2vtj/ZqfyUZ5x3ugWXlX3bIt+ijv4pODFIjzR8lG6L1m7YvrMIq0ySGjd1QXn+Ll7q9uedDquzXPMkWSbbVz9KWXVuceP0bEZF6GUPJMNiTbuRfaPnZvGAZ+tHrZpY/YHp4a5p0UfVGWHa3ueNm51amhh1uUbLH3247hqizvPFvexn55QXXzR9WbbVWyDJItfn7+jR+q/G2kmzlWvfwZZ2w9X+386sYPtejNZjn2isurpz/Czo9e1+PJvAwhyra6Z7Ih2Z5+UfWSm+/e+KPY5n5yrHrF5WdWp7nQO/+GiXknZFvmmWxdJdtdlz+qOuPUzc93zjd7JNmUJY8kmLI+WRrJ1jmFkq1zpku2+reHbmZbwqUiTZJtEZl4LpvLriCwtoeARjG2NbQ0K97SaTPDSInNu90LLAxVnZBseyZ7ucWkku22Cyf/HQQbKZdsB6pbkyGE+WerWRvDje5ED7eN8My0bek3yp5syKvYC2wjUaJNi88/2Yttp5jbmWbJRnnbEm3Hc9rIRE+3/dUtW7JvUrLt7Kl2fF7vzRaGjFKnU7bqlH9e23JEkm0dcrQ6escl1bmn7pRtUWB1fvHBUd5kfEmmd1nsjTZNlkXJNvl5c3ZXV77zY9VDU44hynJk/JItSrRp2VVd8Rt/mGzzJTlWHbvrsurpp++UbbGXWpFky+WYlX/HZdWZZ3iPu/lLNnqyvfXDm8NUt+edLZJsyhomDBvNvrE0RhJPGU+WXrIdOVIduvbC6qyzJoeHk730UL3mmurQkVnaZ+Vfly//BCt/78FrqttzD6ufyOHqwhO3RF8q4o6E57EduN1ufmNdJdkWEkSZ1X9TOGy+/GC7R9jkc9pi77QNcXYoJ+O2yswJtIlEERdkWirPkh5OxzMh40L2HKhuzSyvWLJNEXTHZdnEUFGeT7ZzmcO++GCzXjM9k+348NBY7qQwa05Osm33btsuc2caJVudQJtIFHFBFkbJFgTa5LyIRLvZ2dqWNyTew/GzGjm3JJFkW68w1HJCtu1+SfXOBzf3mVLJtlHGOVZGnQTzeSeGiuZ7nMWebtuSbVLONUeSbZUy/meyxaGi09JVsm3n2F2XT8q2XVdMPEOtRLJtlHGelVEnBuck2SaGi26Elx1cWd0UhsLOEkk2ZXw5dNA3ypYplWCSbMpyZpklG8Msp7/sYDN7D9xePdDyAvUIcq1wCOneA9dY+fXrMQ4J3ayLTXvkcOhllxtKKsm2mCSy6/7bq4P+b4RTEEPpc9luO2g3ZVtSov55bDNItonecUkmZFzy1siM0Fo9yRans0SRZimSbPZ5OkxzU15tL39nT7dMEik2Gsm2UW7NfnlHMt391233brN/L+MLDzySbGsYXorgvc5O2F295J0PbvT+LJFs+ee87a52nxDe/tmrZEOi2U14y2sUZTmzXJJtV3VFQfkz567Lw0sRNsXdg7bMEsmWf87brmrXCeGNqPOSbBvzXl49IyfQdz2vevHbP7LRru2y2kWSTRlfJNkUJZtllWwTgm3vgeqa2x/Y8WITnrd44XGJZdnoKRanacjEM9r2Vges/FTSHTlyOFN+3bqMwmxncsNIJdkWl4kealdfXZ211bMNMTSxDUV5tudAdWCvbQ/Ml8i4SYFWM1x0oidazXDRYslmy7//2iD2bJnJ8M3eJRttjDLsvrSNQw4XpeyTj5edm667ZJscLrrj7Z3ZRDE3p+GiUaZFEVcq2SZ6s+2vrrrqrOqkrfos6wsPPJJsa5iukm3ipQc2X3gZwUSZx+edJsvKhovGZ7Upq53xS7bJ4aK7rnhb9ZGMjO41XSXbxEsPbL4b32H70VZdKbOH4aIbbwSd+P6u6vJHnVGdurHMnZJtI8eOVXdd9ozqaXa8mJRtz6tu+P2PtHqGXYwkm7Lk6SLBmt8yWh9JNmWxWU7Jdmh7+OWWfMpPRxBVPu3e6pqpQztJm3miCMu/2CDmyGGGnm7dSFv27rX615YvybawBGG1Z8+ejf1kUxylvbPsNzr+1tHQeywjwyZffHDAynpgu6zSFx+0kWzIlPhZIr76l2yTEm2jB9fxFwgctfaH5U3Mt11uPk2SjeckXVddtO/EsFxL0ouNdJds9ttNvMQA0bb9Igi+P3rUfr+z91XX3LctMne8+OBWa68fa3nxgU1/bZh+QrIhyaydUbxPvvhgf3XVvf5Sic3yil580CjZNuvgz2DbjtVlSV944JFkW8UcrV563iOqsw/wFtGwL5Cjd1SXnntq2P+2e5hNSDY+f6d9HvazvEjb/C6+qGD7u/TZarHMo9Udl55bnerHF0uUaWmPud1X3jwxnPuoteOSc8+prrlHQ0VXKeOXbJ+q7nzBIyd6h+264sbqHR/fPg8cO3ZnddnTz6uufkfpUNFj1cufeWZ1zn7eIsofqsJ56Nhd1eVPP93OPb6886sb/+CjGyJqQrLx+W/Y53F5Uc4lEm5j3iDSaiWblXvDWyfLnZBslufd8NZq84UMx6q7Ln/k9nPXNr7LSLaQY3e9onrGGacdl21M/5GG6ZsiyaYseSTZlPXJ0ku2vc3DNMmh+HbPIsnWrvz6t4POGkm2hSU+l+148sM8J+XZZupebBB7ltVnU4YdX84sks0+p37bD+3fFm39S7akzCnpJtkKYvW9N/M7zSLZJodr1iUZSjp1nmT6iZ5o2znea62oDqSh3CmSbfJtoptZ5hceeCTZVjGbkm1bPNdn90veWT3o+/VED7ftHH9hwcT328Ls6B0vq8491YeFWoKAm5BvUzLRY21iqGld9Dy2VcsySLZPHXt59YwzvIdYXdo8j21TspW8TGHXFb9R/aEPz5zo4bad4y9HmPh+W8Ihtp5+eqh/ItkmermFnO/C7Ngrqmc9cluMNSVKNl588LSDN1Rvv9vOwb5erKzvt7I2e77tql781g93HjIqyaYseWaUbBouqixR1JMtlzbzRBE2vSdbu0iyLS627tPeUXWCa6K3GMn1eNuedt/xbTeXPTsF3YySjbZM9jDbfFvoAwNINm58J5cVsv/W6taDJ9l8m/8eQrLtsWXwYojcup9JslmO2nTbz5zLZefz2phn+22n06afHBLqmRgaauWdc3JzHfbf8tDkUNJWko31FHuzWR2X+IUHHkm2VUyhZAsvPdicL//Cge23gtaXu3v37o1z28a/J3q5Nbwp1Ka7+eCpmWeybdZnx0sadkSSbdWyFJKN7+58Qfbtn9sZQLKFlx5szndXdfkX73wJw/YbSI9Vr6gpd9euXdVJJ3nbEsm2Ue4ZO8tNhFnssebZ9eIbqivPPWP620Uz2fW8G6oPfyTWo10k2ZQljySbsj5Z6WeyHTk0omeydYkk2yKT9lBDCmW3n7SHGlKqSR7xwosL9228VGNbluyp9hy4rbr/gcx8M0s2y9H4UoLN72+95qwBJBs5Wh2+Hpnoy9tT7WfdPTwp+/qSbAznPXDN5rpr6kU6q2TbCMM8L9qXiFL77fZfXd12v62j3PIz8+zZs39i6G6c9uKJZ8tlnr9WW4dbq/uQ/GmZs0i2gumXIZJsq5qj1dE7rq8uOYfjUZTZu6vdF1y1cxipZ8dw0ijZyNHqpZeeGwT5bvv+nurjhy6pHUrKPHe87JKNl4VsHqtsnittnoeOTH/2mtXnZZecs3GM3j7OeRuWX3Irk1kWybaRY3dWL7/svI3telu27ap2nf+S6ua7P77Ra2xi+sYcq47d9bLqsvM4x2wtc6K8ZBipZ8dw0ijZyLHqFZc/vXqE1dHLO//Gd1QfPXRZ7TPZjpf7jDMmyw3CjHLvujw+V21X9bwb3m7fH6l98cFdlz8r8xw2a9+u/dVNb787374WkWRTljwaLqqsT5ZVspFlertot0iyKSuURPTtT17EoIwhk8NFNwRfq5uocUaSTVlYkiGhkzJPWcfMLtmUdY0km7LkkWRT1ifLLNk2cuRIdehaXiawd8f+tXfv3urgNddUh47M0D7KR7Zlyj/Byt978JqGFxfMGkk2ZcmCSNt3YXXNbfdvSGffXo8evigZarl/Y8jqsmzP65Gj1R3x5Qp7rpp4CPsyR5JNGTSItHMvrK665d7q/nCe3jkUdPsFDDvKUNYmkmxK10iyKYqiLEmWXrIpo4wk25omHZZaE/ViG08mxFr8jVakFxuRZFMGTdELDNSLTdmMJJvSNZJsiqIoSxJJNmWISLKtaQokW/mz2JR5JCfZ9uy/pXpoBZ7F5pFkUwZNgWTLPotNWctIsildI8mmKIqyJJFkU4aIJNsa5+jh6qJ9+8KLQyx7eLHDNfUvB1AWlskhonuq/beungSVZFMGz8bLFM6ZfAHD7t3V7gN6eYEyGUk2pWsk2RRFUZYkkmzKEJFkUxRlLJFkUxRlLJFkU7omK9kURVEURVEURVEURVEURekUSTZFURRFURRFURRFURRFmTETkk0IIcT4+P8sX7T5v0L0xv9rOWnzf4UQYqH8P5ZHbP6vEEIslP/L8sWb/ytEK/5PiySbEEIsAZJsYggk2YQQY0GSTQgxFiTZRFck2YQQYkmQZBNDIMkmhBgLkmxCiLEgySa6IskmhBBLgiSbGAJJNiHEWJBkE0KMBUk20RVJNiGEWBIk2cQQSLIJIcaCJJsQYixIsomuSLIJIcSSIMkmhkCSTQgxFiTZhBBjQZJNdGXpJdsVFur83Rv/Kofpp833SMuxrfD/QgixSCTZxBBIsgkhxoIkmxBiLEiyia70JtlKpNUQSLIJIdYFSTYxBJJsQoixIMkmhBgLkmyiK6OQbE+w/InFl1+Xz1v2WiKSbEKIdUGSTQyBJJsQYixIsgkhxoIkm+hKK8nmYqpr6oRWqWRjGqaNTJNspWXH+HIk2YQQY6JvycZx7gOWD1q+gg96YFnKFNsMLdn4/X7Pwu/3lXwghBA1SLIJIcaCJJvoyigkWwlvtORklySbEGJdGEqyccx7Ch/0wLKUKbaZl2Tj93sqHwghRA2SbEKIsSDJJrrS23BRl138t29cdiHaUroOFy1Bkk0IMSbmOVyUofmIredaxjxEdVnqOWYWOVx0jwUB9z0W/X5CCEk2IcRYkGQTXelFsrmMYt4hhBQ3UTyPLSfw2kg26nWh5X0Wbyv5lIXP03p7uyTZhBBjYJ6S7bssLG/s8mpZ6jlmFinZ+P3+3SLJJoQASTYhxFiQZBNd6UWyvdbCfC6v+u7NRnk+hDOlVLK5MPM25sLzYuIyJNmEEGNCkm0nkmyzI8kmhBgLkmxCiLEgySa6MpNkQzy5YENEPX7rv/ybz/sQU0gvBFtuqCiUSjbm93qmbyjl317vuBxJNiHEmGiSbF9ruc1Cr1+OZeSQhYuDN1g4jqYvDeC4dtTCMc4vIjiWshwvI6ZEZOXKdDjWfs7yyxa+e83Wvymbev+wJVd+rkyXa2kdiYRbO9pKNt/W/LcjbGuPstxl+WNLfMEBv98RC78f04DLtfi7eSTchFhfJNmEEGNBkk10pbNke46Fnl9MHyUU/+XffM73TDcLSDRuvlIx5pRINq9TrGdKbpqS+YQQYl7USTaXV34Mj0GuIajGJNl+3cL3uWUg4NJl5MqUZOuPNpKNZ6j9vSW33uO2JskmhOiCJJsQYixIsomutJJs9FT7CQvPMPNpcz3W+PfLLT4N0zMf87eBG7K6Z7E585Bs3g7SJPyEEGJIcpKN3r70HOL49LqtfzsHLS7fSiWb4xKrrbBqKjPKQI6lLMPLfrGF5c2rnmKbUsnGtvVpS9225vKtRLI5Ltsk1oQQIMkmhBgLkmyiK8WSDYnl35OSXmoMKfHebp4mGRbxYaJclHOBXkfb4aK3W1JJxr9ZDt/nhot63YkkmxBiUeQkm/c8y/UAAxdbY5JsHEfP4oMEhrXmljlEPcU2pZLNhRjb2ol8kOC93CTZhBBdkWQTQowFSTbRlVY92ei1dp8lJ5lcwuVkF9MzHxfYXGxPA8GGnONCPf6lPEepZPMyvY258H1cHnWlzqX1FkKIIclJNsRUnbRy2jyTzRlSsuW+A+/NJsk2X0olG89b4/fbZ6lb16XPZHMk2YQQEUk2IcRYkGQTXZnpxQeRJsnWBu/9VtpjrFSyARf66XBX4sNZ+T7Cv7kpIOl3Qggxb1LJxnEJ+ZQTaJGxSba6Xnd1yxyinmKbEsnGb4AoS3uppUiyCSFmQZJNCDEWcpLtOy3/ZIkugbzZcppFCBiNZOMiHNGFXEOyIdtKaCPZIiX1pU7cFBD+XwghFkmdZMvJp4gkm2iijWTjN0hFWUSSTQgxC5JsQoixIMkmujIKyXahxXuX8cw0LshLkWQTQqwLdZKtqSdb0zT+XZ/yqqlMSbZx0ldPtrpp/HN+P0k2IUQTkmxCiLGg4aKiK6OQbPRa45ltyLa2SLIJIdaFVLKBP8fsJy05ScExju8l2UQdpc9kY1tDiF1pqfv9+F6STQjRFUk2IcRYkGQTXSmSbC6y+grl9UWTZOPCnov6dPm5vC8J8z1+67+EsoQQYpEgk1IR4eKK49jrLH4xwDHrRRb/rqtkQ4i1ucBoKnNIyda2nmKbUsnmbw8t2dbaSjZ+v6ZhqEKI9UCSTQgxFiTZRFdWWrLBGy3p8kvCzYAkmxBiTOQkG3hvttyxDBnCcbCtZIvyzlPSW6ykzD4lW9d6im1yks17rbH9nMgHW/jncX17fFtr80y2KO486tUmxPoiySaEGAuSbKIrvQ0XXRTTJNsscGPATQHh/4UQYpHUSTZ4juUDFj+O85zLiyxM3+XFB4D0igJrjJINutRTbNNGssGzLWxrLnbjttb2xQfA7xdFmySbEOuLJJsQYixIsomuSLI1wI0BNwWE/xdCiEXSJNnqeIIF6VEnqIQoHS46Dba1T1vqZJoQQkxDkk0IMRYk2URXJNkakGQTQoyJLpLtoIX56nqPCdGXZGNb8+erpb3fhBCiBEk2IcRYkGQTXVl6ySaEEOtCTrLRe+gtFobcxT8G8EzJ11iY5/OWsyxC5CiVbGxrb7awrcWLznRb22eR0BVCdEGSTQgxFiTZRFck2YQQYkmok2wMB/Xjdy7+vCwhcrSRbAwHzW1jnost2taEEF2RZBNCjAVJNtEVSTYhhFgScpINeKHAvRZ6EflxnP8/ZHmKRYgm2gwX5W2g91jiiya0rQkh+kKSTQgxFiTZRFck2YQQYkmok2xCzEJfz2QTQohZkWQTQowFSTbRFUk2IYRYEiTZxBBIsgkhxoIkmxBiLEiyia5kJZuiKIqiKIqiKIqiKIqiKO2jnmxCCDFy1JNNDIF6sgkhxoJ6sgkhxoJ6somuaLioEEIsCZJsYggk2YQQY0GSTQgxFiTZRFck2YQQYkmQZBNDIMkmhBgLkmxCiLEgySa6IskmhBBLgiSbGAJJNiHEWJBkE0KMBUk20RVJNiGEWBIk2cQQSLIJIcaCJJsQYixIsomuSLIJIcSSIMkmhkCSTQgxFiTZhBBjQZJNdGVwybbX8nnLFRv/ms7XWm63MI/X54OW51hytC1/Fr7bQn18WU+w/IllqGXPs21CiPEjySaGQJJNCDEWJNmEEGNBkk10ZVSS7UKL1yGXY5ZHWiJ9iijKZhm55UAfkm3aMiKSbEKIiCSbGAJJNiHEWJBkE0KMBUk20ZUiyeYyyb8vCUIKSkWRT0eQbVFA8R292Sg3LUeSTQixLkiyiSGQZFscXAf8vOXfLVxfvMnS9Ftw3fFHlt+0PJoPhFgxJNmEEGNBkm06j7d81PIuy5dbFnWfcovlUxZGRZ7IBwtmNJLtjZY4X4rLKepBfRxJNiHEuiDJJoZgaMnGufL3LPyx7Cv5QBznTosLNuKSjXX2fgvr7IkWh88l2cQqI8kmhBgLkmzTkWTLM4rhoqXiiTIoizKdPkWUS7N5SLa0HV52Ln20TQix/EiyiSGYl2TjfPlUPhAb7LH8nQVhxnqJ+7ZLNtbZ11n8O0k2sepIsgkhxoIk23Qk2fKMSrJxMckFZB2UMaRk87LSZTh9SDZfBuXQe8+RZBNCTEOSTQzBIoeLIpoQcN9j6WvbHqLMaXRZ5ndZWPdXWkovCCXZxKojySaEGAtjkmy7LO+xPN9yMh+MBEm2PK0lG2IoJ8PqPi+VYNOGi7rQSpfRp2SjDvw4JNebrU6ElS479mJjGcxb117os21CiOVHkk0MwSIlG6KJ4ZJ9CrEhypyGC7PvtbSVbG3mkWQTq44kmxBiLIxJsn2n5R8tByySbDuRZKvBpyOLePFB7KXm/0+bYj1mlWxM59On7c3RV9uEEKuBJJsYAkm22ZFkE6IfJNmEEGNBkm06kmx5RiPZAInFtF6PNKn0gj5ElJcRe6+5EEPu8WNBFHFAW2lzybK9vLgMXy6fv9bCRhqRZBNCRCTZxBC0lWycE2+zfM7C+YscsjzKcpfljy3xBQec845YOP8xDbgI8/ljusqxNmV+jeVWC/sU3/u5NncxzbmZN4B6e5n2dRba4qIsLstTJ8/q5qHcsy3Mwzp7wMI6izJtmmTzdvl68Hb5ehdi7EiyCSHGQk6yIbv+ybLfkpNdXB/9reWZlvTaiiGff2n5VctjLa+0/I2Fa5EvWF5oOcUScbmWXjMQhNtZlljmjZZ/sfyZhWsCrikeZ2FZD1n8+oDl/YjlVEsdZ1qo04MWn+9DlvMt3vYmycbQVurOPNQlyq8nW15voa5en2ssX2rJXTuBz+PrjPneYPkyC9c+aynZvGzCv/k8Byvmdkuc5z7Lcyw5ZhFRXMS+3FJXJ8RX/K6LZKM9XCQzH8Iut368l15ah1naJoRYPSTZxBC0kWw8e+zvLZyz0nA+PLr13zFLNn/hQG66X7bEi7OmaZFoXBeMRbI11dXfWirE2JFkE0KMhaEk29ssXC/9myU9X7/ZcrrFKZVsb7fEMl2yUf93WHLLIunyHOTZuy256xXKxnFwvVIn2b7D8g+WnGBjPfyFxUVZzFssZ1hSmOfPLbl5qA/XRZ+2SLJZ+mAWEeXSjPn5/xw/ZPGy20o2/555coLN4WIaoZeWI8kmhIhIsokhKJVsnMO4gOGcRk+ueE47aHH5ViLZHBdjfQ7tbCqTOiOpqOdPWbw+XABSR/axKMfomcdncVra8+OWb7H4dC7O2gz9bJqnrWTzz9O60i7KSdslxFiRZBNCjIWhJBvnZHpuxZcY/Kjlny2xB1rEZVs6XDSWyby7LVEy0RvtZyxcE32Jxct10fWnlnR5zONiDkkWy6Q32dWWJ1mYJyfZmgQbveqYnuu0V1keY2Eeyn2nhWVyTRl79MV5brKwbC+TXnV/ZfH2L61kQ/jkJBmSjYtBLgwjYxZF1JVec6XCr0tPNuZBoKXrpQRJNiFEhBNIPAkK0Qelks3lVdrby/FebmOWbD9h4bvcGz1dVMX2+fDXJ278q55FS7bSdqk3mxg7kmxCiLEwlGTj/j73PUMe/9WSe+7aNMlWV2YTDBf9rOVZljifL4tebgzFbLquSSUb81KfP7Ckgg1YJjLxekt6rHeZxtDX2JvNpd20Xm4Iw5WSbFwMciHYh2TzsrwupVmEiCqRbEII0ReSbGIISiUbwonnku2z1G2Hpc9kc+Yp2bwenLdz0iz3vcur2DssxyIlm09bJwOnfS/EmJBkE0KMhaEk229ZcvLKe7N1kWyU2fTiAXqnPcNC77F7LA9buL7Bo6RlIvtoQyrfckTJ9m2WJsFGHRjWWjess+57XmrAc9i+2VJXn6V/8cE6SDbq8IMWngVH3eNy+Def833a1jbwjDl60bExxPLJ+yxc2LPRCiGEI8kmhqBEsnG+cwEVBVrKMkg29qP0vBsTJRvzxBck3G/JScYxSLZp7eIvvJJsYuxIsgkhxsKQLz7IPQetTqTBNMlWVyb8rMVfMJBLLNOHiiK6csNWU1yyubBrGrLpEq3u+XCeWMY0MedIsvVM3+VfaEnFWl2YjunbwAWyv+igJEOtNyHE8iHJJoagjWTLibLIqkk2h6Gw/OXX5z1siW2RZBOiHyTZhBBjYRUkm/eOQ1JdZflWCyKKduV6zrlk4/qjqWec45INwUW4/vo/LOlbUmEWyUZ9GE5aV5+lk2xcvNEo/65NEETL1JMtvgjBn9VGfSL8m8/jG1DrXpqQEtvmb0zN9VbDGtOTzcuXaBNCgCSbGII2kq2pJ1vdNP45578xSLZcPUqhjJdaKD8+u20Mki2dVohlRJJNCDEWmiTbtZZT+SBhTJLNhVldr7TcM+B8Ht5W3na4KHX5mKVOtJUKs4jP09STrWSaeSPJFuDlDdSVOpfgbWO+EtquCy6muVlhfbBehBDrjSSbGIISyQYvtnDhxMP1c9uhy62xSjbw58qdbem6vJzUWqRkgzsts7ZLiDEgySaEGAtNko2XApzGBwEXXtzvj0GyIcCQXvHNn45/x/VSWqa/nIA25uoZiZKNZfi/KTcn2vz5aiUCz6E+rPPcyxLAX4yw1G8XbUtXybYIsSTJJoQYM5JsYghKJZu/PZTrhNdZ/MKT89OLLEgevusi2egV1rV3WUpTmbSBv85yLr7YEi+e+Y6/QD/Xwn5GvV9tobw4Ha+WZz1E0eXCrE07+pRssV2XWNJ28ddqb5cQY0aSTQgxFnKSDYn0oIXrjFdavtTCufXJlt+2cF7/gmUoyYb4eqzFz+dNZXqvNIZn/oDFhZfXlefAU990eVHAvcHyTRYXV8x7teVJFuqQSjZfF3U92qjvX1i4XqFOSKjYlpssz7Ok8/D2UO6D+N7bT/teaPmMhe8k2RrgwnJRkm2sw0VLyxdCrDaSbGIIcpLNe60h0+LFin/OuSkN0/JHpzbPZIvizuM90FyWte3l5sIpVyb4G0Pj9zEuvag3oov9Lp2G83MsM7dML8eX9wuWuC77lGxQ2i4hxowkmxBiLOQkG/AsM45V6XkWycP5meuBviWbzxuvSZjuLEtJmbGe5N2W/26hHXXLQ4blroFcZnFNkZNsEOdPRZv3TEvL9fDHzLQHXNM8b7Fw/bnULz5oS1fJ5nUpDctgWbOiFx8IIcaKJJsYgjaSDZ5t+YDFL7y4qLnIwrbZ9sUHgGyKos3lVa6sUurKdGhDfJEB4c2h/FErTscfvdLpeOnBUy3pvpguc96SDUrbJcRYkWQTQoyFOskGl1s+a/HzLdcsj7EM9Uw24Pu/svgySyQbPN/iPcuY7/UW6pp78UGEHmlMy/BOX+ZRy/dZfPo6yQZNou3bLG+zxJcgUHbaiy3CPO+xcO3E9DyD7fstPBtv6d8u2pZlk2xAHX7QQm+zVLjxbz7ne6briveGY2OI5RO6bnJRnuvlJoRYXzhJ6UZZ9E1OsnUBAcQFT51Ma4OLOf4yOYaLJSHEfJBkE0KMhSbJJkQTo5NsQggh8kiyiSHoS7LRvZ+/ksa3bnaF4ZcPW/ZZtM0LsT5IsgkhxoIkm+jK4JJNCCFEP0iyiSEolWz0VOOBuwxzjBed9Lp+jYXtkz+q9SHGGK7KsIFZe8QJIZYLSTYhxFiQZBNdkWQTQoglQZJNDEEbycZwUL9WyIU3dmobFUJ0RZJNCDEWJNlEVyTZhBBiSZBkE0PQZrgowzh5sP7nLH7NQO+1Q5anWIQQYhYk2YQQY0GSTXRFkk0IIZYESTYxBH09k00IIWZFkk0IMRYk2URXJNmEEGJJkGQTQyDJJoQYC5JsQoixIMkmupKVbIqiKIqiKIqiKIqiKIqitI8km6IoiqIoiqIoiqIoiqLMGA0XFUKIkaPhomIINFxUCDEWNFxUCDEWNFxUdEXPZBNCiCVBkk0MgSSbEGIsSLIJIcaCJJvoiiSbEEIsCZJsYggk2YQQY0GSTQgxFiTZRFck2YQQYkmQZBNDIMkmhBgLkmxCiLEgySa6IskmhBBLgiSbGAJJNiHEWJBkE0KMBUk20RVJNiGEWBIk2cQQSLIJIcaCJJsQYixIsomuLJ1ke4LlTyxv3PjXCSc80nJsK/x/3+y1fN5yxca/+oUyWd/fvfGv2WGdsG5YR75e/N+rxJC/iRBjRpJNDIEkmxBiLEiyCSHGgiSb6MraSbavtdxn8bYia37IUscYJBt1/p8Wr/MHtz5LGVqyUeZzLKw/1onXh/BvPuf7kt8BaHcsoy7pupdkE+uKJJsYAkk2IcRYkGQTQowFSTbRld4kmwuTLr2yXJz58tNEUTSLZKNuqRzy1M0/Tei4KCtJKrxKJFvduqFO1C0ypGTz9ZDWI5dc3XJIsgnRjnWWbG+wcDz7yo1/ldN1vnVCkm1xcK7+ecu/WzjfvcnS9FtwPv8jy29aHs0HQqwYkmxCiLEgyVbPLZZPWej4ow4AO1kbyRaX8XKLT8uGQc8wPs9Jm0VLNtrJNF5nwv/zWdrmoSRbXHe3W1gncbnAv/mc73Nt7ULdupdkE+tK35KNffQDFo6BX8EHI0aSbTiGlmxsZ79nYTvT7zDJnRYXbMQlG+vs/RbW2RMtDp9LsolVRpJNCDEWJNnqkWRrpjfJ5jLI5VcbuGjkJmiaKAOftq1kc6GVEzNeJuH/I12ETpRdTXid6iSbLzvXNpbBd0zjxOX6eimpxzTaCtS209chySbEJENJNo4TT+GDESPJNhzzkmz8Dk/lA7HBHsvfWRBmrJe4b7POkGyss6+z+Hd8LskmVhlJNiHEWJBkq0eSrZleJJtLD+ZNxU8JXDRyITmUZCsRTnXCq4vQ6UuyNckq/y7WayySbVq7HC93WtJ1L8km1pV5DhdlP0PAPdcyhpOnJNtwLHK4KKIJAfc9lr62syHKnEaXZX6XhXV/peVEPiiA87kkm1hlJNmEEGNhVsm2y/Iey/MtJ/PBCiHJ1szMks1lDvPxXBH+2yS8cnDRyE1QyXw+bRvJ5lLG58lRN01XycY8zNvENBnF93XlpOsB+H8+4ztfL/7vWfBlUdc+h4tKsgnRjnlKNgQAy5NkW30WKdnYzhgu2acQG6LMabgw+15L6TK7zMN5VZJNrDKSbEKIsTCrZPtOyz9Z9lsk2daLmSSbi5woQlwclQgzxyVOyTw+rcslr0PTvC5lmnpWpeU6bYWO16cPyRalWUquvkNJNqCOtMm3kaaUtB1csjX9Ljkk2cS6IskmyTYEkmyzI8kmRD9IsgkhxoIkWz2SbM10lmzPsbh0eS0fBPg3n/M9003DhZEv35OTNalcKpFsJTKnrpy2Qie2Zdo8s0g2r6+vK49P79/Xzd8FyvwJy32WdLmsIz7/QUtcf01IsgnRjibJxknuNgv7hu+XhyxcHLhoSl9uwL561MKxwi8i2B9ZjpcRUyrcHm95jeWTFp+Xev2wpWl+b8PnLD5f2oacLOs6n9ikrWSrW9+Pstxl+WNLXN9sZ0csbGdMAy7CfP6YrnKsTZlfY7nV4tu6n1NyF9Nsz/TU9/Yy7esstMVFWVyWp06e1c1DuWdbmId19oCFdRZlGufzJsnm7fL14O3y9S7E2JFkE0KMhTrJ9jjLqyx/Y+E64guWGy2PsXAOd7mWnudJFG5ezkMWP29T1gstp1hyPNlyk8WXzTxc6z7WwrUZ1whcC6TXH8z3esu/WHw5V1u+1JK7VgGfJ7csrjUk2eppLdmQZv42Ti7efsiS40IL3zMd0zNfnXyJYiqG+REqLmNixirZYl1jL7McyybZUkrWaxNd55dkE+sKJ7jciYx9IgqPGI4BiDT+Ow/J5mXm5ie/bJmlDaks6zqf2KaNZOPZY39vabO+2SbGJNn8hQO56dg+4/PRmqZForG/jEWyNdXV31oqxNiRZBNCjIWcZNtt+StL7lrZBVqJZDvT8k7Lv1ly073ZcrolwjPe/tKSW/afWbg2+LQllWzM9xeW3Hy55UDTPHFZkmx5iiWbCyEP4oyV2gTf+zO6PMi3FJdsXExyYZniMiamjWRzKdMkc7wOqRhrK3RcjCEfmY/565hFsuXqG6f39VI3/zTS33vW5NZf7ndtiq+ntr+JEKsCJ7r0RMb+Tc8h9hF618T9/aDFBRTHghLJ5iACWF7b4aKU+XOW9A8rLsNy9WjThihvmI4TfNv5xCSlkm3a+nb5lq5vtoNUsjkuxvoc2tlUJnVGUlHPn7J4fbggpY5s81GO0TOPz+K0tOfHLd9i8elcnLUZ+tk0D8toI9n887SutIty0nYJMVYk2YQQYyEn2egt9q+WV1q8FxjC7Ecs/8kSr6eahosyz89YuM7mfO7nZxdpf2qJsoxe9R+zcH1D77L/YPHveLHCZyyc6xFgdfNRZ+9tRy81l3wHLLF+cR56zT3JEpflkpFlSbLlKZZsXPBxsceQwCZxlMNlG/PHmy6Hi0Muyuu+j/i0Lpe8Xk3zupSJQiqlbpo2QselEdOm9czhIqtOsvF9najLlc//8xnf+Xrxf7fF69ZXcuuvrWTzMtr8JkKsEpzQ0hMZ+xGfT+shxrFgHpKtiRdbqMtZG//axpdV0oYob0rmQ/yk84lJSiUb65sLrrS3l+O93NL1zXY2FsnGIw/4LvdGT86ViKrYPh/++sSNf9XDMhcp2Urbpd5sYuxIsgkhxkKdZOOciqSadr7v+ky2H7V81vJMi5+3KesfLU09z3JyjrL+2XKdJT22ukz7FUsss2RZ9HJjWZJseWZ68UFfcAHIRXmTKHN8WpdLLpOa5vVpmI/5c7hUSoVXqdDJ1cMlUpNEa/q+aX7/LtarT8k2ZiTZxLqSk2w8G4H9IRVXEX8u2TwlG2V/s4Vebfxxhuc2cMwiaZnULyffIt6GKG+6zicmKZVsCCfW9z5L3TZR+kw2Z56SzevB9pCTZrnvXV7F3mE5FinZfNo6GTjteyHGhCSbEGIs5CQb0orjVOzJVkeJZKNH2zMsPJvtHsvDFq47uF6OPcx4BtrfWqJ4S2EarhFcslH2Oyy5IaRQ970v61mWumXpxQfNrIVkAxdaOTHjZZJUSJUKHerDdEwfqfscvE51ks2XnWtbrtyhJJsLvbapa5cQohupZGM/92dgpQItMm/JxksPmDd3XCCxzLZtcHkT52sSaJJs0ymRbKxvF1BN63IZJFvTtkloo8so5uFi0+e535KTjGOQbNPaxV+cJdnE2JFkE0KMhZxkQ0wxXJMho5xbuRZ9miV3HTVNsv2sxV9EkItLtmmyzKmTbHXPffPEIaaly5Jka2ZtJJvPR/tebvFp41tScyKtRLL521Rz03j9WDYbYWSaZAPaGetM+H8+S9u8rJLN65oroylNv4kQqwg30fFExr5TJ8ki85RsDAllPk68/D+92ThJsyz/LifZStuQSra284mdtJFsrO+mHl2rJtkchsLyF2af97AltkWSTYh+kGQTQoyFnGRzGDL5NosLLK5//HlnTpNk8x5xyKyrLN9qwRWwPB/imUo2rgm+3FJ3ndGnZJu2LEm2ZkYl2Xz5ufBDcyHp07aVbODCLFc+5eXmb5JsvmzmbxI+XmfKiS9+KJFsdeuGsmIvNhhKsrXFpZwkmxD9wk10PJGx7yCa2M/reoE1TePfsf/1Idmm1QfhlZbZtg2pZIufpZRMI9pJtmnrOzeNf852NgbJlqtHKZTxUgvlx2e3jUGypdMKsYxIsgkhxkKTZHOQUtdYOHbxDLPTLE6dZGMeXjqAYMs92w1ZRk+5Nj3ZctOUCrNI22VJsuVZK8kGbAg8H8jLRVbxJtA6pvVkoxdbiexhub+29V+nRLJBWue6N7sue0+20t+wpHehEKtIKtnAe4f9pCV3kmM/5HuOBUNLNo419GLKleffcWxIy5zWBq8LbYjyput8YpISyQasb+QSD9evW998n65vtrMxSDbw58qdbem6PNqTSi2WuSjJBndaZm2XEGNAkk0IMRZKJBsgnZBmnLO/zOLn4TrJxgsHHrS8yxKnh/hmz/hMtvgCg1P5IIFl8bKC9O2iJc9XS+FNqXUvSwCW9Q8WvV20niLJ5jKor8wiR7jA5AK+q2Rry5BCp1SylSLJJsRqgzBKT2TsD9xcs8+9zuIXA+xLL7L4dxwLukg2euuUXGCAl8fyLrJ4XTkBf8DyPgvfpZKtTRuivOk6n5ikVLL520Pbrm++nybZ2M669i5LaSqTNvydhXPIxZa4bfMdbw3z7ZN6v9pCeXG6gxbWQxRdLszatMPn6UOyxXZdYknbxUV2G2EuxKKQZBNCjIVUsiHTeI4a51POwX5Ofb7lM5ZUmrlko4fbYy3+uUs5hnH+gOUUC9Cr7bctXC9zfRAlm789lGtzngnnQ1Mp64UW3kbKd6lk8zeBcn3w/ZYvscTvbrJ8nyVKQJ+H8vi+aVmSbHkk2aYgybYt2fqqZ0rb31CSTawrnNByJzLv0RWPsx5kiB8b2ki2KLA8JTfpiINcXVgGz5Pku1w5TW1AXHgbUlnWdT6xTU6yea81th8fEgn+eW59+7bW5plsUdx5vAeay7K2vdxcOOXKBH9jaPw+xqUX9UZ05bYvzkGxzNwyvRxf3i9Y4rrsU7JBabuEGDOSbEKIsZCTbMgxzt3pOfYLlgssqaxyMebTea8273kWyyDvtvx3C8fCKNnAe7Ol8xDEG49lic9kc5rmI+lywHuz5aZ/i4XrPT2TrZ5RDBdtgyRbPX4zOZRka5vS38TrmiujKZJsYt3gJF13IuMlLvQW8/2DE5/3Juvy4gNAAkTRVtoThp4+n7T4fN7ryYVYXTnPtkxrQ06WdZ1PbNJGsoGvb79ojOu77YsPgO0sijaXV7mySqkr06EN8UUGhDeHcr6L03Ghmk7HSw+eaonTQbrMeUs2KG2XEGNFkk0IMRZyw0XpbRZfeEC4XvlGS3q9BMg0ern5eTkOHaUHnA8N5TvvoZa++CDy7Zb3Wlz08Vy0yy30hktffBBhvrdbYr25B0h7sUVyy6I3HMvSiw+akWSbgiSbJJsQY4ETdNsTGft/3XPShICcZOsC2xoXYGxrsw795LyAmOO8lrtoFUKsJpJsQoixUPpMtjHgz3JjyGrpSw7EcCydZEtxQVMqdNqyTJIt4uulD8kmhBgHXSQbvcqYj6GTOuGKHH1JNrY1/hrLtjarGGP45cOWfRZtt0KsD5JsQoixsEySjV5x/vy30/lALJSll2xCCLEu5CQbEp1nIzD0LP6hgb9ovcbCPPyh4CyLEDlKJRvbGhdvbGvxojPd1voQYwxXZRjDrD3ihBDLhSSbEGIsjEmyca3FI1B4xER86cLjLK+y/IuF58I909LHH07FbEiyCSHEklAn2RgO6sfvXOKbPoVIaSPZGA6a28Y8vLFT25oQoiuSbEKIsTA2yRaf35ZLfFOpWCySbEIIsSTkJBswrP1eC72I/DjO/x+yPMUiRBNthosyjJMH68cXYmhbE0L0hSSbEGIsjG24KG8r5aULvM2cewKuwei9xosXvsmiZ9iOB0k2IYRYEuokmxCz0Ncz2YQQYlYk2YQQY2GZnskmxkVWsimKoiiKoiiKoiiKoiiK0j6SbIqiKIqiKIqiKIqiKIoyYzRcVAghRo6Gi4oh0HBRIcRY0HBRIcRY0HBR0RU9k00IIZYESTYxBJJsQoixIMkmhBgLkmyiK5JsQgixJEiyiSGQZBNCjAVJNiHEWJBkE12RZBNCiCVBkk0MgSSbEGIsSLIJIcaCJJvoiiSbEEIsCZJsYggk2YQQY0GSTQgxFiTZRFck2YQQYkmQZBNDIMkmhBgLkmxCiLEgySa6MhfJ9t0WyuW/fbPX8nnLFRv/EkKI1UWSTQyBJJsQYixIsgkhxoIkm+jKaCSbTzMtxyyPtDiSbEKIdUGSTQyBJJsQYixIsgkhxoIkm+hKsWQrlWBvtKRIsgkhxOxIsokhkGRbHFzP/Lzl3y1c47zJ0vRbPMHyR5bftDyaD4RYMVZFsrFvv9rybxb27V+xnGKp4/GWhy3s21/KB0KIhSPJ1p5bLJ+yfK3lRD4o4EzLz1o4/nO8fIvlDMu8+SULdX+KpbTudRRLNmTWbQ35NQuya1bJVjcNJysEmySbEGJd6VuyccP+AcsHLV/BB6I3WLe/Z2HdfiUfjJihJdsyrYt5c6fFBRtxycY6e7+FdfZEiyPJJladVZFshy0cW33fRrJ9leV3LOzXT7LE87kkmxDjQ5KtPTnJ9jjLb1k49n2NJRVYzPMvFj9eumSbNl/fLESyTaNJdkmyCSHE7Awl2f7EwglF9IeLJdbtU/lgxMxLsi3Dupgneyx/Z+GmmvUS922XbKyzr7P4d5JsYtVZBcm22/LXlndZvsHi+y8iDcn2x5ZvtEiyCTFuJNna0yTZOPZx7RMF1i7LX1j4nv+P38X5cD5rKdmaJNk0gQbTppFkE0KsO/McLsqxFQH3XMu8lrkujG3dLnK4KBdbCLjvsfS1LoYocxpdlvldFtb9lZbSizlJNrHq1Ek29rHftXyfZegbrQjLfZ+lzXKfY6FXxlWWk/mgAEk2IcaHJFt72g4X/Q7LP1iutyz6DyyjlGwME+UvrlwApkiyCSHE7MxTsiEAWJ4kW/+wbhkiOE8J1MQiJdsQ62IR69eF2fdaSpfZZR5JNrHq1Ek2xNW/Wp5nmadk67Jcl2znW0rnkWQTYnxIsrWnq2Q7aGl6buU8mLtkcwE2LbnnsYEkmxBCzI4k22qwCAnUhCTb7HQRZl3mkWQTq44kmySbEGNBkq09kmybFEk2Luropebf16VOkEmyCSHE7DRJNk5mvISG46Efkw9ZuDh4g4VjePpyA46lRy0cV/0igmMwy/EyYtoIN8p+keWTFp+fB5ciFtIyctPSDuqfe1Ycx/3PWX7ZQr1fY/E6s4yzLODlMq2X+QpL7oKJMv/e0leZTHfEwrp9FB8YLn+YL80ihVtbyebbmq8Dwm9FO++y8OyM+IKDea2LNmXyAN1bLf4b+3VEbtvg5pc3gMbf/HUW2uKiLC7LUyfP6uah3LMtzMM6e8DCOosybZpk83b5evB2+XoXYuykks0lV7q/kFR8sf1zg+f71xcsDMeuE9I87+fnLDwbkWMB0/+i5UssTcutk2cu19LpKfc8C8eXey3s16lImybZaBs3gKVtE0LMTk6yfaflnyz7Lbnh4Fwf/a3lmZb02opnjv2l5Vctj7W80vI3Fj/+vNCSE025+fxY8yHL0y0si7d0UsZnLV4mb+3kmJK7HvHpH7T4dQPzcC33TZY60fRky+stXnfm416DunENkko2lvN2C8c+jrvUxeUa88aw/G+2eHvS+SJeD18XzHuNpa69wDw3WmLd6Sj2ZRYXhKMYLsqFIA0n/D+V9HLSlEi2afHlOJJsQoh1gZNB7qTh0il3zESuIdLmKdkQATxzLFdGWg9OwkiZ3LSE47sLLsfb++sW6p7Wl3n2WTjh59qCSEvb4ZLtrZY+ymTdrqJk4/lErKdcG+K2NmbJRhu4qc5Nx+8YL6yapkWisb+MRbI11dXfWirE2Okq2dj+401TDG/2TG9cmZ6XE+Smp1z27bFINn+RQmnbhBD9MJRke5uF66V/s6T79Jstp1si0+bjGMPy+INn7riVKxPZ9DFL3XUTZT7LkmsDLyrIHY/+zMIx7NOWoSUb9fhzS64e/nbSlKZ5Yt1HIdmQalwYcoMCkmxCCDEMnBTSm3Zuul1S0buGfzt0vXb5VirZHEQAy2s7XNTLZJn0AIs90Tjh8mBTr0ecNu21xg2H9yZLpU2UinEZXl48ecZeZqyPXHngki1XJoKobZk+H+s27UXkMmiRYi1SKtnYtrj4YB3ktjVff4teF01luqSinj9l8frQS8R/5yjH+Gsun8Vpac+PW77F4tO5OGsz9LNpHpbRRrL552ldaRflpO0SYqx0GS7qgort/Kctvm+w/d9v4XiQznfYwv4Xp2e/+zHLt1p82qbl1uGyLZVxlN9WsqVto5cd0Lb7LLStzbBUIUQ5Q0k29mdk0vMtXsaPWv7Zguxh/47n6zgfPdf4N/s8Euodlijd6OXmPbkon7qmZcb5+ONx7LWGzKIMjsXpfByPXMzdZHmSxb9jWX9loY7MN02yOU3DRevm4/8/aqEer7I8xsJ3iENvV1oe83zE4nX/aovXj2Oor1/qvnDJhthi+mmCywVak2TriiSbEGJd4OAfT0zAcZXPc72zwIXUvCSbz+fDLpuI09Ytw3uO/aTFp/E2cexPe7lFEZQr18tL2+WSjTLpsRYpLTNKHdbtqkk2rzfrIHfxQc8Q1uGYJdtPWPgu90ZPF1WxfT789Ykb/6qHZS5SspW2q+R3FmKRdJFsDOHnpoq3eabbuEsqenPGGy4kG8f1eJOYY9GSDaHP8q+2pDf0dW0TQvTDUJKNa83c9wy1ZH8/YIllN80XxVeux1quTNrwj5bc9I7Pd53Fj8k+X1NPMXq5/allSMn2IxZ+g9wbSV3AMbQ21pHl/N+Wab3cqPvCJBsniddamLbuZQcRSTYhhJgdRE56M4DgycmmCNPMS7KxLARYU32ckmldqEW55Z/l6u1tyskyeLGlSbLVlYkkmlbmqks2hBPrnXVQV+/SZ7I5Q6yLujK9HuwLOWmW+97lVewdlqNJmNXRNA91KZVsPm2dDJz2vRBjoq1kY/umRxfbd06Y1X3vYi72ZMuxSMnm0ze1rel7IcRsDCXZfsvCM8DSfdZ7s9VJNub7ckucz3ul8biI3DJzZSLQqGNuOKjjwgxZ5SKuZL7ciw/6lGz+GX8kictw4vdRllEvHingQ1FzzP3FBxFOHAylccHGAX4afUg2Liy58E2lniSbEGJdSCUbx1+EUk6gReYl2UrrA6XTcuznRBnrmBNvEW9vOiQU6trlkq2pTG5k6spMpQ7tWyXJ5u2pW6/OMkg2fn+/3smFNrqMYh4uKn0ehp7lJCPLXLRkm9Yu/jorySbGTlfJxj6f2+49bP9RRDFffJEA+9A5lnRfHINka9s2IUQ/DPnig1wPMu8pVifZ6ubjOoVrg3SYKaRlupTj2jo3veM95N5lQexxPCqZb16SLQ6RzSUO+6wTbykLkWzcgHAS82noyVZKH5LNZZokmxBiXeEmOp6YOOHVSbLIvCXbtPqATyvJtnjaSLZceyKrJtkchsLeY/F5GWoW28IyJdmEmJ15STaHffudFp//Dos/9wwk2YRYXyTZdko2jl9pb7rImCVbbvmRuUs270XGdwitCy1t6EOyIdF8+dwMCSHEusFNdDwxcMKbJqqapvHvOOn0Kdk4Ts9juKgkWz+0kWx16xXqppn3uqgrs6kepVDGSy2Uz7biF2Esc9GSLZ1WiGWkq2Rj+9+4mekI5fB8H27c4hs7xyDZctMLIYanSbJdazmVDxLGLtmgZNgny4zDRUvkXJxmaMmWK6sOn6epJxvT8PbWpmnaUNyTDUF2u4UV1pZZJZvP7zeKrFROPEIIsU6kkg38eWDxxQARjp98Pw/JBl6fOlkVKZkWuZXWQ5KtX0okG/B7UW8erp+rt7drrJIN/LlyZ1u6Lo/2pFKLZS5KssGdllnbJcQY6PLiA3qWcvw+1zLL9s9+lwq7RUo28LadZ5n1pk8I0Y4mycZLA07jg4DLMP7YPGbJxosDeE5byYsPcvPFlyFEXJgN/XbRkuerpTS9LAGoBy9GGMXbRUuZRbJx48OGykU7F5deFiubk5UQQqwLyKH05OnCiePi6yx+McDxkQc7+3ddJRvSKf2uCY7TyCiWecjCicrhhMvJzevRNC03HK+xUAduOmIdVkWytV23Q1Eq2fztoSXbWlvJxrro2rsspalM2sDDgbmuuNgS1z/f8Rdo3zao96stlBen40KQ9RBFF9OwHtu0w+fpQ7LFdl1iSdvFxXJbYS7EIpgm2ehlFodzAts4N1xs/5da4j7Id9yQcXz2myb2r1dZuKeI0zL8i94d7F+pZGO5pT3l+pRsuy1/baFtl1liffmOtnEMkYATon9yko199UEL1xmvtLC/cm59suW3LZzXv2AZs2SjDf5GUq5vv8nixxBkFu3iWPxuSxwaSj3o3cZ19E2Wx1r4Dhn2QstnLXw3tGSjHrwJlOPiD1g4NsfvXm/hDyOxPJ8nV/f/ZvmMxeu+0pKNExFv9WLlEW6AHB86ygsYuvSsE0KIZYSDfzwxOd4jzI/hMcgQnmXZVrJFeecpvUnPzetJ69E0LeE4n9bb52kSYmOWbL6s2M4+e3K1JSfZvNca20+80PDPY909vq2l66lpXXADXLcucuu1BBdOuTLB3xgav49x6UW9EV25fYvrklhmbpleji/vFyxxXfYp2aC0XUKMmTrJ5iIt7o+xd5m/LTRu8zFxWvavuue4cXMcp2W5SK64XJdnP25hmTdY4g1xn5INWA6iL9YzJl2OEKIfcpINeGMnx6p0X0TQsA/Xvelzmiybl2QDynRhlraDfMiCOEzL895suXneYuE6cMhnsjneMy1XD5Irr2meWPeVlGycgHjmGw1knjqRxjRc5DINJ0puWoQQYpXhRFh3k8xF/QcsfhznGHqRheldOrWRbIAEiAKsTU8Yjtv0Corz82ZGykzLoB70WovTUn+ETq5eyy7ZIF23bUVSn7SRbPBsC9uaX5jFba3tiw+AdRFFm6+LXFml1JXp0Ib4IgPC9sl1SpyOC9Z0OoZvPdWS/l7pMuct2aC0XUKMlTrJBpznomhLh3ByM3m3Jcoz9iOO9+lxjH07vvCA8NKDr7ek+0q63HlLNqBtaX1pG8e2tG1CiH6ok2xwucV7brE/cs3yGMsyPJPNQWLRay0e33gm2VUW76GX49st77FwDePzfL8FqTX0iw8i32bhOWrxjxBMm/ZiizBPru48X28hbxedhVLJ5j3UPLzBlBNSHfx4SDifPu3xJoQQqwQnwLoTXh0+JJOTTt2FglhvcpKtC2xrXKywreVkWhtczPFXRd1ACrE+NEk2IYSYJ02STYgmRiXZuECnVxpyjb/olMJfjJBtzCeEEKtKF8nGX4aYr66HlhB9STa2NXpZsK3NKsYYokWvjn0WbbdCrA+SbEKIsSDJJroyF8kmhBBidnKSjT9O8BwBhp7Fnr/8ocJfHEAv37MsQuQolWxsa7yJim0tXnSm21ofYozhqgxlnrVHnBBiuZBkE0KMBUk20RVJNiGEWBLqJBvDQf34nYs/L0uIHG0kG8NBc9uYhzd2alsTQnRFkk0IMRYk2URXJNmEEGJJyEk24FmUPEzZXwZD+P9DFh7eKUQTbYaLMoyTB+vHlzZoWxNC9IUkmxBiLEiyia5IsgkhxJJQJ9mEmIW+nskmhBCzIskmhBgLkmyiK5JsQgixJEiyiSGQZBNCjAVJNiHEWJBkE13JSjZFURRFURRFURRFURRFUdpHPdmEEGLkqCebGAL1ZBNCjAX1ZBNCjAX1ZBNd0XBRIYRYEiTZxBBIsgkhxoIkmxBiLEiyia5IsgkhxJIgySaGQJJNCDEWJNmEEGNBkk10RZJNCCGWBEk2MQSSbEKIsSDJJoQYC5JsoiuSbEIIsSRIsokhkGQTQowFSTYhxFiQZBNdkWQTQoglQZJNDIEkmxBiLEiyCSHGgiSb6Mrgkm2v5fOWKzb+NZ2vtdxuYR6vzwctz7HkaFv+MrHKbRNCtEeSTQyBJJtYNvZY/tbyEsuJfNAjXG/+m+X7LH2XLaYjySaEGAuSbKIro5JsF1q8DrkcszzSEhlaRH23hWXz3y5Qr7QddXmjJSLJJoSISLKJIZBkE134LgvbzvdauhyXfsLC/LnroTRvssRttESy+TS58tJEoSbJtlgk2YQQY0GSTXSlSLI9wfInFv++JC6lSkWRT0eQbVGm8R292Sg3LWdoEeWSTJJNCLFoJNnEEEiyLQ6udX7e8u8WrgNSmZTC9dgfWX7T8mg+WCAuySTZRJ+simRj3361hW2JbexXLKdY6ni85WEL+/aX8oEQYuGsgmS71cJ1w9dYSs/VZ1peaeF4zPHrzZbTLfPmFsunLIx0XLbz8WgkG4IpzpfCyYqebNSD+jhDiihfJvXK9aLrgpdZUp4kmxAiIskmhmBoycY5+/cs/LHsK/lAHOdOiws24jKJdfZ+C+vsiRZnKMlGuVzIXmkpuZDl+uUBC8ekvupCmfdbuD76Ej5ooI1kazuktEmy8R1lnmPRsXgYVkWyHbZEiYxk+yrL71jYr59kiduQJJsQ42NVJRvHm3dbOBY92ZKez5jnXy1+/HLJNm2+vll5yTYLJaKoVDxRBmVRpjOUiPI6+TohiMCm+pXg5aayMIckmxAiIskmhmBeko3z3lP5QGyABPo7CzfVrJe4b7tkY519ncW/G0KycV2CMOPapKRMn57jkV8fIQdnrQ/lItn+2IKMaDrWLUqywR2WkjqKbqyCZNtt+WvLuyzfYPHthBtUJBvbzzda4vYjySbE+Fh1ycaxiHNlPNftsvyF5be2/j9+1zTfEEiyNdBGsk0TT/OSbFxgYWhZF9SLDcqFG5/zQ3fF60tZsdce/+/rP40kmxACJNnEEAwt2ZrgIg0B9z2WvrbtIcqcRpdl+jPNSnuPwRCSjWGbf2852zKt7s+20E7vwUbPRBduv2+JQrAtrEOkGNc9ueGb6bURWYRk45rQe/0tar9ZZeokG7/n71rmPYyX5b7P0ma5bEP/YrnKcjIfFCDJJsT4WMfhot9p+UfLdZZF/8FjrSQbvblyMqzu81IJNm24KOVSfrqMviQboo8LTX5I6kGZP2Rx+P61Fl9H91k4ifJ5G7ydBHHn80uyCSGmIckmhmCRkg3RxHDJPoXYEGVOo8tLALrM07dkozyue37ZUrcNcJ3y4xYEAMcgro/+i8UvePk+PleO3mhc07S9MYlDZ2mfDxmdVbLl5ktDOd7+aZINXmShF6KGjfZPnWTjd2H40vMs87zZ6rJc5kGynW8pnUeSTYjxsc6S7YCl9I8EQyHJZswq2Xw6Ms8XHzCft9tzu6WutxqfI9ji9KXL92Uh13596/9Zb3X0JRCFEKuBJJsYAkm22VlWyUYdkEW5Xmy5FxPwnKl0aKvDBfzdFo5TPj3XMCU99XxZtIvrI36/ppdAlPRSG1KyxeUvat9ZVSTZJNmEGAuSbItFks2YVbIBf/lkWq9HGpaR9hybVURRX+qNOPtBS1p+HZwMuSikC3mu3RHK9F5w1JU685kPQc21CyTZhBARSTYxBG0lGxc7t1k+Z/Hz8yHLoyx3WXhWR3zBAee3IxbOeUwDLsJ8/piucqxNmVxscuHpQsjPtbmLac739NTy9jLt6yy0xUVZXJanTp7VzUO5LrtYZ7nnpE2TbN4uXw/eLl/vKfQeS5fhsCwubumZ9sOWujJSWF/0fHuvhesjnl1WB+38OQv1pa70DOM3YJn8NnXPeiuRbDm4bpvWA61EslHv0pc0iHakks0lV7q/kFR8sf1zU+b71xcsSN46If04C9sf2wTbG9P/ooXftGm5dfLM5Vo6PeWeZ2HbvtfCdpOKtGmSjbb9kqW0bUKI2clJNp65+FeWX7U81sJbOH2//5Dl6RauqXhD549YeD6jH19+1sL+XXf+8XketPh5nPk4V/Mcx7pzEi8heL3lbyx+XfMGC/Xjei2VbCznHRaORV9u4XOXa8wbw/KfZfE2pfNFvB6+Ppj3aktTm+vq/mUWrmck2SxNks3LJvybz3OwEulJFufxoZk5xi6iqLf3wkvbzbpinfEd06RtlGQTQkQ4+dSdpIToShvJhtzg+V1+fo7hfHZ0679jlmy0gZvq3HQMm4wXck3TItH44+BYJFtTXXO9wlyiNQ0VHRKe78bLHTiu0fYovhAO1I3veNbbcy3p77JIyQYMGf20RS9A6Jeuko1tIt6kxfBmz1MsEab3m990espl3x6LZPMXKZS2TQjRD02S7W0WrnnS8zn7+zMt/PExdwzhTZ2nWVKQTVGupfFy0/M1Lyf4S0vu+PBnFo4pnKuGlmz+woRcPd5iOcOS0jRPrLskm2VWydaWMYuoKNHq2sw0LuHS9SfJJoSIcBLSzZzom1LJxvmJix3OV/TkiuergxaXbyWSzXEx1ufQzqYyqTOSinr+lMXrw8UndWQfi3KMnnl8FqelPfTU+haLT+firM3Qz6Z52ko2/zytK+3yFxOky3Ep16bOfRElGtc5OenFNDzonmn+1BJl1hgkW+l0oh1dhou6oGJb+WmL7xts//Q45HiQzsfQZ/a/OD373Y9ZvtXi0zYttw6XbamMo/y2ki1tm/ecpG10QqBtbYalCiHKaZJs7JP0XPvfLex/CKh3WqJ0o5eb9+J6vuWfLMgjhFo8B/m8nFO47oi91uhx+yoLxxTmjbKM48PHLBwH6A32JIt/x/I+Y6Ge6XxNsqxpuGjdfNTjoxbqQV0fY+E72unt4jox/kGAdvk8N1nSuvs6pu5rIdkQPjlhhGRjhXMCiay7KOIvYfTMS9dLhO8YThpftACSbEKICCebeCIUog9KJZvLq7S3l4P4QLSNWbIhWfgu95wwF1WxfT789Ykb/6pn0ZKttF3xd+5S5z5BRDAUJLYjhfXAcD6Gq8Z2NUk2LvZd4Pl1bUlYpwgM1kuJPPM6SLL1SxfJRq9CfjPe5pkey1xS0Zsz3uAh2fijQbyxy7FoyYbQZ/kMuUpveOvaJoTohybJxj162rOMfdJ7o+V6rDF0k/15vyXuzy62mOd0PsjA+ZJ5eevnqXxgTJvPe4rxh6ohJRtDXP/Zknsjqcs0htfG3mzfYfkHS1Mvtz+3UPe1lWycNFjZhP+PtBVFXpbXpTRdRBTz5Mrqmr5lmCSbECIiySaGoFSyIZx4Ltk+S912WPpMNqdJiHWlrkyvBxIwJ81y37u8ir3DcnQRVk3zUJdSyebT1snAuu9ZPr26Sl96MEva9jibRpNko73+TDdfPtdS9IrjObqEHkD8AZQbnl+z/I7lf1lYp6yXNpKNOpTsP6KMtpKN35vfk+07J8zqvncxF3uy5VikZPPpm9rW9L0QYjaaJNu7LDw3LO533iONPzjmhnb+qIVjXCrZEGicT3LzOD4sFFnlQq1kPqbhumEoyeaf+bDO9DjE92+3pMM+eX4mQ/x9KGqOtXrxAcJHki2fNnXgBMwFHhtOWg4XgFzgcsIVQghHkk0MQYlk49zsAioKtJRlkGzTejhFycY8XKD6PMibnGRsEmZ1NM3DcttKtmnt4q/ByyDZuMBnnX/SkrYJUca11ldYStfzUEiyDUNXycY+H7eVNGz/UUQxX3yRAPtQbhjxGCRb27YJIfph2osPcs9W8xcNpENCgfMbQ0ajZHMxh4SKIiyFYwRDQ5F7CC6ODy63muabl2Tjjxa545MnDvusE28pkmwWVjbh/yND98YaunyGe7JO+G8fcIHsz2AryVDtEkIsH5JsYgjaSDbO8009ulZNsjkIlXssPi9DzWJbVk2yldClzU1wA+HPYMvVP02puOsqDDVcdDHMS7I5/I7c4Pr8d1jiG2Ml2YRYX5ZBsnE8SUVZZMySjXIYTlpX95WWbPyArAD/rk0QRGPuyVZCn5Itto0LAk7C7DAp7ARcFLLehmybEGK5kGQTQ9BGsjX1ZKubxj/n/DcGyZarRymU8VIL5cdnt3URTk3zsJy2ki2ddhrIhVlefNCnZKMNPsST/3LNRVtTuGnhGVXUm+ujEtE2lGTjGq5kWKloR1fJxva/cTPTEcq53sJvGt/YOQbJlpteCDE885BsgAhrO1zU5VaTnKubJifLnK6SLVdWHcwzrSdbyTRjRpJtCn1KtrbrggtMblZYH6wXIcR6I8kmhqBEssGLLcglHq6f2w5dbo1VsoE/V65r7y2gPanU6iKcmubJLQNykg3utLRtF2XxF+LcyxJK6NLmOrxXWGldEBLUnfUQex3lQLIh5ZreKBoplWc806tNuaKMtpIN6FnKM5DOtczyW7DfpcJukZINvG3nWUqXL4Toh3lJNp7VxosDSl58EOWXzxdfhhBxYTb020XpccY5vOn5aim8LIF1wR83csd8fzHC2rxdtC1dJRvh/xeNJJsQYixIsokhKJVsiBBu9jgnvs7iF56cnxAOSB6+6yLZ6BXWtXdZSlOZ3nuLc/HFlnjxzHdcHD/Xwn5GvV9tobw4Ha+hZz1E0eXCqU07miQVy24j2WK7LrGk7eLi3Nvl1C2jlKb6t4U6LptkY1jhUcu05Yt2TJNs9DJL1znbDw/QZvu/1BL3Qb7jBhDp7r8n2/6rLFzbx2m58WU7ZLtKJRvLLe0p16dk44b+ry207TJLrC/f0Tb2wWW7ARViGZiXZGP/Zygo1y78MfAbLb5PM5yS4xXHlHdbotzy3m3cH7ze8hgL3yHDXmj5rIXvhpZs/hZTjlM/YOFYGb+7ycIfKuJbkH0e6sf3j7XEun/G4nWXZMsgybaNt43y2gwX7WPZQojlR5JNDEFOsnmvNWRavLDxz/16IYZp32hp80w2boBd3Hm8B5rLsra93CgTqZIrEzi/1rWBuDSi3kgo9rt0Gs7PsczcMr0cX94vWOK67FOyQWm7IszD+u/Ss69PyUZ7uwwXLRmqSRv7lmwu+ZCCpX+1F2XUSTYXaXF/jL3L/G2h/l2aOC3bW91z3L5gidOyXCRXXK7LM7ZFlnmDJd6M9inZgOUg+mI9Y9LlCCH6YV6SDaIwy+3nH7LkyvTebLl56BnHdRn1GVKyAT3T6upB+ANllGzgvdly07/FQt1X9plsszKv4aIsg2X1TZ+SDbho1IsPhBBd4MSbnlyFmJU2kg2ebfmAxS8EuQC6yMK22fbFB4CsiaLN5VWurFLqynRoQ3yRAXG5E6fjojSdjuFbT7Wk+2K6zHlLNihtl+NysMuQ0T4lGyAZluXFBxoqOhx1kg2QV1G0pUM4uTm82xLlGfsRvTjT35J9O77wgNA78est6W+aLnfekg1oW1pf2saxrW47FULMxjwlGyCxXmmJxxueSXaVheNC3fnm2y3vtfi5jnkutyC1hn7xQYR68By1+AcPenxzrM61F77N8h5LrPv3W6j7Wr1dtC2SbHmo6+0WNpy0Le+zcFGY6+UmhFhfOOHWnWCF6AoXNn30xkEAcXHEOTwn09rgYo6/YuoGclh4nhsy86s2/lVO35LNQfxxU/BJSyrckHBcT36FpXSZfUs278XG0OC6mwbRnSbJJoQQ8yQn2YQoYXSSbWwMJdmEEKItkmxiCPqSbAwFoJdFfOtmVxAt9OrYZ9E2PyzIUZdGbbaDoSTb2KEXGzIZKalts38k2YQQY0GSTXRlcMkmhBCiHyTZxBCUSjZkDM/3QK7Ei0569rzGwvbJH9X6EGMMV2WIwaw94kQZPmx03YRZW0qe1yZmQ5JNCDEWJNlEVyTZhBBiSZBkE0PQRrLRg8evFXLhjZ3aRoUQXZFkE0KMBUk20RVJNiGEWBIk2cQQtBkuSo8nHqz/OYtfM9B77ZDlKRYhhJgFSTYhxFiQZBNdkWQTQoglQZJNDEFfz2QTQohZkWQTQowFSTbRFUk2IYRYEiTZxBBIsgkhxoIkmxBiLEiyia5kJZuiKIqiKIqiKIqiKIqiKO2jnmxCCDFy1JNNDIF6sgkhxoJ6sgkhxoJ6somuaLioEEIsCZJsYggk2YQQY0GSTQgxFiTZRFck2YQQYkmQZBNDIMkmhBgLkmxCiLEgySa6IskmhBBLgiSbGAJJNiHEWJBkE0KMBUk20RVJNiGEWBIk2cQQSLIJIcaCJJsQYixIsomuSLIJIcSSIMkmhkCSTQgxFiTZhBBjQZJNdGXpJdtey+ctV2z8q3++28I64b/zpG27vtZyu4V5/Hf8oOU5lhxDr7d58gTLn1jeuPGvE054pOXYVvj/Phl6vVFun9sb64R1wzry9eL/XiX4XT5nWYXtuQlJNjEEkmxi2dhj+VvLSywn8kGPcN30b5bvs/RdtpiOJNt6stvyWctVlpP5oGeebWHber5F5ztRiiSb6Epvkm0WGeVioSQuUpxS6eEiJldmmtiGWdo1C21kzoWWtA0xOdkkybYJcvI+i68r1skPWeoYi2Sj3v/T4vVGqPJZypCSjfK4GWH9sU68LoR/8znfT/sNIrQbkRTLyuUnLRFJNiG6I8kmuvBdFrad77V0OS79hIX5c8f4NG+yxG20RLL5NLny0kShJsm2WCTZFgsy6l8s51vanhd+3PKvltw+luZXLKdanFLJ5tOVXCtGoSbJJrogySa60ptkK5UDOXzekiyTZGuzTI8vp7RdPh1BtkWhwXfIF8pNyyktvyuzrDeYtu6iKPJp20o26sY6yJVfN2/JeuO7XJm5xHaAz9u03urWDfWifpGhJBvLQWqldciFep1lKYF2S7LVs86S7Q0Wtt2v3PhXOV3nWyck2RYHx+Wft/y7hWNbKpNSOHb/keU3LY/mgwXikkySTfTJqkg29u1XW9iW2MaQSqdY6ni85WEL+/aX8sGCcFEmySaEJFsTt1g+ZaGThzoA7KQXyeY378w7TWyU4OWVlFUqi1xMpJJuGrPIojoZ0hRfTmm7aE+cL8XXZSpWSsvvyizrDaatu9ie9Lct2X5i+S+3+HQcKOrEJJSsN76LdW1K+rv4vE3rzX9zrzfh//ksbfMQko15/9jC8hiizDqJywT+zed87+38CsusUGZOptV9vmr0Ldn4LT9gYZvv4/cZEkm24RhasrGd/Z6F7Uy/wyR3WlywEZdJrLP3W1hnT7Q4fD6EZKNcLpavtJSIJY7xD1g4JvVVF8q838J56kv4oIE2kq3tkNImycZ3lHmORTcVw7Aqku2wJUpkpNJXWX7Hwn79JEvchoaQbJT5CUvpEEz2wXstHJPeZZm1Hl4e+/S0stpKtrbDSuskG5//teVpFkl1kSLJVo8kWzMzSzYOoBw8fV7CjT2fd8XLLJEBJdIDKIfyXMSUMqss6kpJu3w9kab1TRmURZlO6Xrriougtuvb8d9rWtsg/W1L1gvtpn659nt5ue2v63qjbrnyUrxeddubLz/XNpaR/s5xub5eSurRBHXjxuq5G/+aTtvpm6Btkmz9wXaAZGObeAofjBhJtuGYl2Tjd3gqH4gNkEB/Z+GmmvUS923WGZKNdfZ1Fv+Oz/uWbJwbEGacH0rK9Ok5HnG+IsjBWetDuUg2/oiDjGg61i1KssEdlpI6im6sgmRDBCFuEFXfYPHtBOmFZGP7+UZL3H76lmzsT6WCC3z6KP0Rgxs3iB3xMmnvV1ua9pdFSTY4ZPm0ZVodxfohyVaPJFszM0k2LkS81w8HcU4Q/Jd/83nuGVEluEignCgb+H+vY5ppN9dcmHKx2lb6+DJjPeaBr4OmdnHyKpEmlJHKl5LyuxJ/v3S5pfjvRftoZxPpb+vrpW7ekvXGesn97l3XW1+SrWl79O9i3cYg2bxNJdN72UzfFA0XHR7WKQKO320MJ09JtuEYWrI1gQhBwH2Ppa/tbIgyp9Flmf5Ms9LeY8Cxu2/JxrDNv7ecbZlWd25UaSfHIurAfuXC7fctUQi2xaUYx/jc8M30PEAWIdm41vVef4vab1aZOsnG7/m7lnkP42W577O0WS7bEM81ayOC+pZsDN1k+z/PMq3e32lh3XoPtv9gceH2B5ZUCJbiQozjQxx+ynGE9ZPbp6+2zFuyse7b9PgT68Oskm2X5T0WtrtV27Yk2ZppLdm4UeeCjJXKtAiH+KB4vn+txcvq8vBzxIDPH0WJS4Rcpt1cc2HKjdaiJFudZKn7vFTm+Lqqq5+3O11GV1k0DRc51InnzPDfOtnVhNe7ZF6f1n9br0PdvN72pm2hbpqu641ymI/5m6Dcpt+T7+vKSdcD8P/+2/t6SbeFtjDvUMNFabckWz3zlGwIAJYnybb6LFKysZ1xI9enEBuizGl0eQlAl3k4/vYp2SiP67lfttRtAxzPuWFHAHBM4Bz0Xyx+48738bly9EbjWN72xiQOnaV9PmR0VsmWmy8N5Xj7p0k2eJGFXogaNto/dZKN34XnfT3PUiq7+qDLcpnHXx5QOk+fks2lET1M654Dx377Y5aHLOzXX7D8V4vvB3wfnymHTOeY+ihLKfQQ4xjH/HH4aR+SreRaMZbVJNmAY9zfWDRsVERmlWwI7H+y7LdIsq0XxZLNb/5juIGu663G5/GtjaRETvhykAG/vvX/JTJkWrlcSHKjFetTl1gWF4p8Vic9SomyI1L3eWm7fDqy6BcfsGx+t7g8/su/64RXHf57lczn0/p24vWom9fb3vSbpmU6Xdab14f5mL8JX191davbXiBX5zi916Nu/jZQP9pDXaeF6dq++KDt0FLWqyRbv0iyrQ+SbLOzrJKNOiCLcr3Yci8m4DlT6dBW52ssd1vizS/H/5Keer4s2sW1H79f00sgSnqpDSnZ4vIXte+sKpJss0s2hBLCKNeLLfdyAoZAf72lbr9+h8UFOEHITev15ctBrr3Vwv6dvuwg0na4aN+SzcudJvnEeiHJVo8kWzPFks1v4BFnP2iZJj4cThpcPNHVuunmnvK8B5zLCJcCfIYsyC2zVHp4/b2NTYllcdPPZ01CpoQ6OVL3eRuZM0145NZdm/JL4ILC68DvGIm/K9OVUPd7UQZ1j/i0tBN8u6mTbCW/aV0ZXdZbbMu0+fi+qW512wt4nX1deXx6/75u/rZQHvt2KtMJ66jtsQJotyRbPU2SjZPcbRbfDwl/RebiwEVT2puQ3+aohe3CLyL8N4i/p6dUuHHcf43lkxafl3r9sKVpfm8Dv6XPl7YhJ8u6zic24eanjSioW9/0cLjLQk/XuL7Zzo5Y2M68F4SLMJ8/pqsca1MmN463Wnxb9+N67mKa7ZmeWt5epn2dhba4KIvL8tTJs7p5KNdlF+ss95w0jt1Nks3b5evB21XX+4TeY+kyHJbFBTQ909h3S3uwsL64wX6vhX2PZ5fVQTt/zkJ9qSs9w/gNWCa/Td2z3kokWw7OWdN6oHGdMk2yUe/SlzSIdqSSzSVXur+QVHyx/XPj5/sXMgjJWyekH2dh+2ObYHtj+l+08Js2LbdOnjFProcW5SK82LbrnpM2TbLRtl+ylLQNGc65PVcOy6GXG9vvf7bUrZsU1hU93xj61vSMNfaN/2FhH6KO9AzzdrOf1z3nreswUOB4w/GgqRfaNMlGve+x8Ns8hg+EMOokG/vDqyzIbD923Ghh22G/cLmWHgtIFG5eDj1K/bxNWS+01PVCfbLlJosvm3m41n2shWszrhE4XqT7J/O93uLHKJaDVOY4UXc+9Hlyy+JaQ5KtnplffNAHnJS8xxUXWVGicJHHRRrfMQ3TRmaRRcyTLi+lRMiU0FWy+W+SWzcRNnB6FsZ5fKhujlnWWyT97eLQ4Qi97Lxu/jtyQqsj/u4xvg78d4kZq2SLdfU61kG5TXUbk2RLoc4cgNsKskjXMvhd1lmyefvT395/fy62+e88JJuXmZufMCxtljaksqzrfGKbNpINucHzu9qsb7aJMUk22sBNdW46ts94k9Y0LRKN/WUskq2prrleYZQ1bajokHDTy8sdON7Q9ii+EAHUje941hvHnvR3WaRkA4aM8rB0vQChX7pKNraJeCMYg9hJb1iZnpcT5KanXPbtsUg2BFRdXdO2uURrGio6FN9h8We7uWDz9eT1og08543jYzzuLFqyAeVw3NELEISTk2xsq39lye2PLtBKJNuZlndafEh2mjdbTrdEeMbbX1pyy/4zC8cPzkupZGO+v7Dk5sstB5rmicuSZMuzcMnGRR4X5CzXBUoK07jIYdooCJi+rfRwmKdumQ4nWZbLf2dhaMnWllnWG7gM8vD7sJM14SIwzod8y+HbBRci3Gyk+O8SUyrZvO1Nv6kvP5ViXdab/8YIyGm/oa/XurrVbS+Qq3Oc3tdL3fxNpL/3rKlbf7Q7dzCvi8s41um6SjZ+S39GHr1r4m970OICit+9RLI5iACWVyLWIpRJz4BUpPtvlKtHmzZEecN0nODbzicmKZVs09a3y7d0fbMdpJLNcTHW59DOpjKpM5KKev6UxevDBSl1ZJuPcoyeeXwWp6U93Ix9i8Wnc3FWJ9ZyNM3DMtpINv88rSvt8hcTpMtxKdemzn0RJRrnxZz0Yhpu2JnmTy1RZo1BspVOJ9qRSjbHZVtu2KYLKraVn7b4vsH2T48tjgfpfPT2Yv+L07Pf0VvrWy0+bdNy62Ce3HBRym8r2dK2ec9J2sYf02lbXI4LOeo7T3lOPV2ipYLNYRrerkqd2aejzBqDZCuZRqwXOclGbzGOCa+0eC8whNmPWP6TJW47TcNFmednLFxncwzyfcFFGvtIlGXsPx+zsP/Qu4wXlPh3bLOfsbD/IcDq5qPO3tuOXmou+Q5YYv3iPPSae5IlLsslI8uSZMszip5s3FgjXzj51MF3DDtMe0p1kR4O80yTHi5zmoRMCXXLQoJwsk3bPku75gH1pd6c4JvWXw6Xbbl2O9wwcKPWNI3j07pc8rrVzevrNsqolLpp2v4uvv0wfVrPHEzXtL3VbUeQK5//5zO+8/Xi/26D16uv1K0/2s1BOzdPLv4CBNbHuko2X2fTeojxu89DsjXxYgt1SZ/R58sqaUOUNyXzIX7S+cQkpZKN9c0FV9rby0F85NY329lYJBuShe9yzwnjuIioiu3z4a9P3PhXPSxzkZKttF3xd+5S5z5BRDDcJLYjhfWAtGe4amxXk2Tj5sAFXu68URfWKQKD9VIiz7wOkmz90kWy0auQ3wxBkx7L2B6QVGnPLiQbfzSIN485Fi3ZEEgsP/essFzbEEW+7HmLIpbNcN3ccFCHdcBwUvbp2J5pko22usTL7b914ZlwSAV+k2kCzeuwiHUnxkmdZOOciqSadu7s+ky2H7WwLT7T4tsiZf2jpannWU7OUdY/W66zpMdW9itkGj1iY5kly6KXG8uSZMtTJNnmdYPdBW6imqQHF5dc8Ofq0RROgJwIXJLUSY9SqF8qRyif5fiyItPaleJlpe2Ylj5/iz7x3y23blJ8WpdLTesV/HvmYd4crBfWT/q7t/ldcvWYtj3VLddpmt+/i3XrS7KNHX6XdZVsPBuBbbLp5RL+XLJ5SjbK/mYLN8jIeG562T5JWib1y8m3iLchypuu84lJSiUbwon1vc9St02UPpPNYTubl2TzerA95KRZ7nuXV7F3WI4uwqppHupSKtl82joZWPc9y6dXV+lLD2ZJ2x5n02iSbLTXn+nmy+cYSa84ng9MOCbxxz5uln7NQu+a/2VhnbJe2kg26qAb8v5oK9n4vfk92b5zwqzuexdzsSdbjkVKNp++qW3p94iuNi89mCV9viRgmmTztnI89uXTYy7u1+z3vl+/xeL7NeuzjWTTyw+Ek5NsSCu2pdiTrY4SyUaPtmdYeDbbPRaOA76dxx5m/FGKc04UbylMwzWCSzbK5sUluSGkUPe9L+tZlrpl6cUHzYxasnFA5GAZb848HEy5COSk1AQHZU5m6fzTwkU2F7NNUqMNtFmSrRzWPb9Bbt2k+LSlkg18m86138vzbSDS5nehPulvDnWfg9erbnvz5efalit3CMlG3dr+JZEgVsRspJKN39SfgZUKtMi8JRsvPWjaRmKZbdvg8ibO1yTQJNmmUyLZWN8uoJrW5TJItmnHL9roMop5uNj0ebiJy0lGlrloyTatXfzFeRkkGzclrHNenJK2iRtqzpMcK0rX81BIsg1DV8kW5UsubP9RVDFffJEA+1BuGPEYJFubto1RsvGsNm7IaV+6T/NcRkYlcM5Y9D4tySZScpINMcVwTd+XuBZlqHLuPDBNsv2shWNF3CdiXLJNk2VOnWTjDwq58j1xiGnpsiTZmultuGhfMgq4iPRnsJWkRHgAG0pJIn21izqmAoSTJydawv9HXKaUtq0tQ5c/K2wD3Ojk1k2KT9tGsvk8/LYvt/h0XBixXuq2q9L15m9UzU3n9WP5HJgiTD9te6Odsd6E/+eztM3LKtmoKyetXDlN8eGjqwrrPZ7IfD3xu6YXAZF5SjaGhDIfJ17+n95sHFdZln+Xk2ylbXB503U+sZM2ko313dSja9Ukm4NQ4S/MPi9DzWJbmoRZHU3zUNdFSrYSurS5CSSDP4MtV/80peKuqzDUcNHFMC/J5vA78lwin/8OS3xj7CpJthL6HG5Km/wZbLl6p2kjt7oKQw0XFW3ISTaHIZNvs7jA4vrHn3fmNEk27xGHzKIHJ8+C5L6Q5fkQz1Sycez4ckvdObdPyTZtWZJszYxOsnFC4UelLE6anKhyvdXYELhwahIifdC1XbEdbUNb2kqwrssbar3NSpRgdaG9tNunbSPZwNdxrmzKys077XeJv0PTuvU6U1Z8+QPzMG/T9la3biiL+kWGkGxtoS0uVkqhrpJsO2E9xhOZryd+07peYE3T+HdsF31Itmn1QXilZbZtQyrZ4mcpJdOIdpJt2vrOTeOfs52NQbLl6lEKZbzUQvnx2W1dhFPTPCynrWRLp50GcmGWFx90aXMdtMGHePJfzhu58xTPwOHmmnpzzC8RbUNJNq5PS4aVinZ0lWxs/03PApsG5Vxv4TeNb+wcg2TLTV8HomiWFx/0Jdm87hwrOe5yPOYcnx4r2Kd52QTCmv2/VLQNIdloO9tf0zRivWiSbA5S6hoL2w7PMDvN4tRJNuZB7iPYcs92Q5axfbfpyZabplSYRdouS5Itz+gkW1u55MKBjYcD+jQoNycj+oa6UCdfp21CHduuh67LKy1/3vjvmquzx39zn7atZAMODFyceZms8/TlGpGS34VebCXrlWXzLBj+6zAf9Zi2H6X1rnu767L3ZKO+005uwO+yrs9k895hCMbcSc5/L373oSUb2xW9mHLl+Xe+LcQyp7XB60IborzpOp+YpESyAeubGyYerl+3vvk+Xd9sZ2OQbODPlevaewtoTyq1WOaiJBvcaWnbLsrir9C5lyWU0KXNdXivsNK6ICSoO+sh9jrKgWRDyjW9UTRSKs94plebckUZbSUb0LOUl66ca5nlt2C/S4XdIiUbeNtKe6ZRDi8I6PKWTuhLsk17xlqK1zttfx1INo4ZTW8UjZQINMqkF2BpmWL1KZFsgHRCmrFvf5nFj0N1ko3t/UELL+aI0wPf+Zs94zPZ4gsMTuWDBJbFywrSt4si7NhXmp6vlsKbUutelgAs6x8sertoPZJsI6WrZCtdD7PgIqivzCpGfBvoItna0vZ3aYuv21n3I0eSbbVgvacnMm876/h1Fl9frENuAv07fvcuko3eOiW/AXh5LO8ii9eVE/AHLDxL07eF2I42bYjyput8YpJSyYYI4Wav7frm+2mSje2sa++ylKYyvfcWx/GLLXHb5jsemO3bJ/V+tYXy4nQHLayHKLpcOLVph8/Th2SL7brEkraLi+x0v6tbRilN9W8LdVw2ycawQo5305Yv2jFNstHLLF3nbD/IEbb/Sy1xH+Q7hjUh3f33ZNvnIeNcz8RpuRFmO2S7SiUbyy3tKdenZPOeabTtMkusL9/RNvbB2La2vd8i6yzZDlnYpxnyJwSkkg2ZxnPUOJ9y3vRzCtvVZyypNHPJRg+3x1r8c5dynGt+wOI9Z+nV9tsWrpc5v0bJ5m8P5dqcZ8L50FTKeqGF/Y3vUsnmbwLlGPL9Fo6f8bubLJzv4n7q81Ae3zctS5Itz8oMFy1dLjfhzMPN2ZihftSzVBr4eiP8/5C4COors4oRSbZ6hpRsbaRZW6irJNtOWO+5E5n36Er3LYIM8e2gjWSLAsuT3qTn4MY7VxeWwbMDfdtJy2lqA+LC25DKsq7ziW1yks17rbH9xBsY/zy3vn1ba/NMNm6AXdx5vAca2xLLatvLjTKRKrkygWuHujYQl0bUGwmV2744D8Qyc8v0cnx5v2CJ67JPyQal7YowD+u/S8++PiUb7e0yXLRkqCZt7FuyueRDCs4iIsRO6iSbi7S4P8beZYh+fjf/Lk2clu2Ne4zc/sIbK+O0LBfJFZfr8oxtkWXeYIk3qH1KNmA5iL5Yz5h0OS6gujyXrS/J5m1lHbcZLlq63L4lm0u+rj0AxWqSk2zIMc596X7IseMCSyqrXIz5dN6rzXuexTLIuy3/3cL2GiUbeG+2dB6CeOOxLPGZbE7TfCRdDnhvttz0vL2X6z09k62etXrxAbjEaJtZxURbukq2XN2bsgzCcRr8Lvw+7Ozg64Lw/30iybYt2dJtaVpYdokwA+rqPaLaZN2eyRbhop7eYr4uOPF5b7IuLz4AbqKjaCuRbEBPH94M6PN5rycXYnXlcBE8rQ05WdZ1PrFJG8kGvr79OBDXd9sXHwDbWRRtLq9yZZVSV6ZDG+KLDIjLnTgdF6rpdAzfeqolTgfpMuct2aC0XY7LwS5DRpvq3wVucpflxQcInTbiTpRTJ9mA81wUbekQTm5a77ZEecZ+xDkn/S3Zt+MLDwi9E7/ekv6m6XLnLdmAtqX1pW0c29K2ee+3LsKIY0gfkg1o07K8+IDyNFRUpOSGiyKG4wsPCNcr32jJbTvsu/Ry8+NHHDrK9uhDQ/nOe6ilLz6IfLvlvRY/r/FctMst9IZLX3wQYb63W2K9uQdIe7FFcsuiNxzL0osPmhmlZHMQGrdb+AG9bh66UXLhxAG8DZJsk5Fka4ck22bdSm+CYli2JNtssN7bnsj4reuekyYEcPE0680UsK1xAca2lpNpbeAYgJjjGKYbnmHheW4cI75q41/l9C3ZHMQfNwqI+vRcg4TjPJnrEVNH35KN606uS+kp21ZgiOk0STZRDn8M4Hj81ZY2+2efks1B+v2SBYmY7tPvt3Dtxh9T2tSzT8nGPk0vtjdZcs+6EutL6TPZxgDbMcKOIaulLzkQwzFqybbODC1zVhlJtjx9STaxOLpINnqVMR83hDrhihx9STa2Nf4ay7Y2qxhDtHBDts+i7XZYOB+4NGqzHQwl2cYOvdiQF0hJbZv9I8nWD1Ec+fOeShhCso0dhB3HwLZCUqw+yyTZEMj+/LfT+UAslN4kmxBCiGHJSTZukHk2Aje8USpzgf0aC/Mghs+yCJGjVLKxrXHxxrYWLzrTba0PMcZwVXqzztojTpThw0bXTZi1hWGADLUpeRac6IYkW3/4sFGG1a6LMGsLUpFtrm4YqVhvxiTZuNbiESicp+NLFx5n4UUuyHGeC/dMi7blxSPJJoQQS0KdZGOolx+/c4lv+hQipY1kowdPbhvz8MZObWtCiK5IsgkhxsLYJFt8flsu8U2lYrFIsgkhxJKQk2zAMGYepkwvIj+O8/+8jv4pFiGaaDNclB5PPFg/vhBD25oQoi8k2YQQY2Fsw0V5WykvXaDnOfcEXIPRe40XL3yTRT2sx4MkmxBCLAl1kk2IWejrmWxCCDErkmxCiLGwTM9kE+NCkk0IIZYESTYxBJJsQoixIMkmhBgLkmyiK1nJpiiKoiiKoiiKoiiKoihK+0iyKYqiKIqiKIqiKIqiKMqM0XBRIYQYORouKoZAw0WFEGNBw0WFEGNBw0VFV/RMNiGEWBIk2cQQSLIJIcaCJJsQYixIsomuSLIJIcSSIMkmhkCSTQgxFiTZhBBjQZJNdEWSTQghlgRJNjEEkmxCiLEgySaEGAuSbKIrkmxCCLEkSLKJIZBkE0KMBUk2IcRYkGQTXZFkE0KIJUGSTQyBJJsQYixIsgkhxoIkm+jKXCTbd1sol//2zV7L5y1XbPxLCCFWF0k2MQSSbGLZ2GP5W8tLLCfyQY88x/Jvlu+z9F22mI4km1g2dls+a7nacjIf9MizLewTz7foPD1/JNlEV0Yj2XyaaTlmeaTFkWQTQqwLkmxiCCTZRBe+y8K2872WLseln7Awf+5aL82bLHEbLZFsPk2uvDRRqEmyLRZJNtGFWWXUj1v+1ZI7PqT5VcupFqdEsvk0XMflyoyJbZBkWyySbKIrxZKtVIK90ZIiySaEELMjySaGQJJtcXA98/OWf7dwjZPKpJQnWP7I8puWR/PBAnFJJskm+kSSbXFwPHq1he2f/eJXLFEmpTze8gkLx6Mv5YMF4pJMkk30iSRbe26xfMrytZbSc+iZlp+1sK2zD7zFcoZl3vyShbo/xTLr+b9YsiGzbmvIr1mQXbNKtrppOPAj2CTZhBDriiSbGIKhJRti6PcsH7R8JR+I49xpccFGXCaxzt5vYZ090eIMJdkolwvLKy0lF5Zchz1g4ZjUV10o834L13lfwgcNtJFsbYeUNkk2vqPMcyw6Fg/D0JINMfQ+C/vWf7Dod9zmsCWKb5dsrLPfsbDOnmTxdTaUZPNyr7KUDL/k2HGvhWPpuyyPscwKZd5j4Xg0rbw2ko1pTuGDQpokG9/9teXpllmFgMgjydaenGR7nOW3LBxDvsaSbq/M8y8WP/a4ZJs2X98sRLJNo0l2SbIJIcTsSLKJIZiXZPsTy1P5QGyABPo7CzeorJe4b7tkY519ncW/G0KycU2FMOP6qqRMnz72yEAOzlofykWy/bHlqyxNx7pFSTa4w1JSR9GNeUk2fsNvsOg33AQJhLBBUqXrxSUb6+wbLf7dEJKN4wDCjONRSZk+ffxjBXJw1vpQLpKNNn+1pWk7WZRkg9stn7b8R4u25f6RZGtPk2Rjf+LcHM+tuyx/YeF7/j9+F+fD+bQ5l3dhlJKtSZJNE2gwbRoOdpJsQoh1RpJNDMHQkq0JLrYQcN9j6WvbHqLMaXRZpj/TrLT3GAwh2Ri2+feWsy3T6s4NH+30Hmz0THTh9vuWKATb4lKMa8Hc8E0+T7MIyYZY8F5/i9pvVpmhJVsTbDMIuD6HCiNX+i5zGnGZpdso+zY9SZpEUcoQko1hm+y3T7NMW1/fYaGd3oONnoku3P7AEoVgW1yKcWzLDd/MHY8WIdn4DR6y0OuvTbmiDEm29rQdLsp+/A+W6y2LflTAKCUbw0T5iysXgCmSbEIIMTuSbGIIFinZEE3cEPUpxIYocxpdXgLQZZ6+JRvlcUH5y5a6bYBrLm58H7ZwDOKa679Y/AKU7+Nz5eiNxrVc2xuTOHSW9vmQ0VklW26+NJTj7Z8m2eBFFnohatho/yxSsvHb81yu51lmvcFyKBN5db6lrzKn4cKMZZYe27vM07dk8/LoGVv3LDiONz9qQSxxPPqC5b9aXG7x/f+w+DHjiIVzwaMsbThk8TLoSeNDRmeVbNQ5N2/MNRYXZtMkG/yY5W8sGjbaP5Js7ekq2Q5aFi2K5y7ZXIBNS+55bDBNoMG0aThoSrIJIdYZSTYxBJJss7Osko06IItyvdhyLybgmU3p0FaH56XcbYk3kVyflfTU82XRrl+38Ps1vQSipJfakJItLn9R+86qIsk2O8sq2agDQ1ZzvdhyLyZAzH+9pe549A5LPIYh5Ep66vmykGtvtVBG+rKDSOyltgjJRtmfsbTtJSemI8nWHkm2TYokGxd19FLz7+tSJ8gk2YQQYnYk2cQQcAPRRhRw4cQLjz5n8fM/f/Wnp8BdFp6dEV9wwDmb3gScv703gYswnz+mqxxrUyY3YLda/IbHryNyF9PcSNJTy9vLtK+z0BYXZXFZnjp5VjcP5brsYp3lnpM2TbJ5u3w9eLvqenFwk5ouw/FebvRM+2FLaU8Q1hc3qe+1cO3Is8vqoJ0/Z6G+1JWeYfwGLJPfpu5ZbyWSLQcyb1oPtBLJRr1LX9Ig2tFWsrHNc1PHkGffn3luHr8L/+V5VfFh/fx291n47TZufgyXa3F/9HQVbi7XcmWmwo02cHPnxwVkEHI6t+3zjCLeAMp2THuZ9hcttHfaMnPHeZdr6fSUe56FerLOcs9JmybZvF3eI8zbVbfPcB45asmV5ctiv/vPlty6ycH6oqfXeyzTnq9GO70XHHVF9nE8usfioi1XtxLJlsN7oDUNjS2RbNSbOvL79PHSB7FNTrJ9p+WfLPstud+b6yPOT8+0pL8Zzxz7Swvb0mMtr7SwDfi+/EJLTjTl5vP99kMWejGyLN7SSRkudCmTt3ay3ea2e5/+QYtfNzAP13LfZKnbLp9seb3F6858b7BQN65BUsnGct5uYRtln6QuLteYN4blf7PF25POF/F6+LpgXiR1XXuBeW60xLrTUezLLC4IRzFclB2bhhP+n0p6OWlKJNu0+HIcSTYhxLrAyaDupCFEV9pINuQGN7O58zNChRsk/jtmyUYbuEHNTcewyXhh1TQtEo1rl7FItqa65nqFuURrGio6JNw88nIHjmsu2Hx9cUNN3fiOZ70915L+LouUbMCQUQSOXoDQL20kG9tBvFGK+VML+w9iZcySDUFD761cG3iAf7zhbpqWMjkejUWyNfXc8reWRryspqGiQxKf70bbo/jyutEWnvXGsT2uy0VLNqAsjpl6AUK/DCXZ3mbheskFdMybLadbItPmY5tleYjq3LEsVyay6WOWuusmynyWJdcGXlSQ27f/zMLxgHPj0JKNevy5JVcPfztpStM8se6jkGxINS6OkF0gySaEEMPASUEXT6JvSiUbUoaLD87F9OTi3w7d/F2+lUg2x8VYn0M7m8p0SUU9f8ri9aHHBXVkH4tyjL/m8lmclvbQU+tbLD6di7M6sZajaR6W0Uay+edpXWmXv5ggXY5LuTZ17oso0VLB5jDN71qYBmESZdYYJFvpdKIdpZKN7cOfE0hPLo45/pty88v24dvONMnmuGyb13DR2IaftngPL/Zb6shxLM7HcG2OGXFa2oNg+VaLT+firE6s5Wiah2W0kWz+Oe36GUtdu+JyXFS1qXNfxPqmgs1hGnrnUne2qSizxiDZSqcT7RhKsvm2xu/lZfCswX+2IHvYV+I5Ks5HzzX+zTaDhGJYdJRu9HLznlyUT13TMuN89ECLvdaQWZTB9pTOx37gYu4mSzy2sqy/slBH5psm2Zym4aJ18/H/H7VQj1dZ6MHJd4hDb1daHvN8xOJ1p1er14/jjq9f6r5wyYbYYvppgssFWpNk64okmxBiXeDgH09MQvRBqWRzeZX29nIQH4i2MUs2JAvf5Z4T5qIqts+Hvz5x41/1LFqylbYr/s5d6twnyAeGlaQ98iKsB4aTMlw1tqtJsnET4ALPr2tLwjpFBrBeSuSZ10GSrV9KJZsLsbS3l8Pvg8DgeDRWyYasZ1vjzZDpzTrbMQKOnl3ePiRbOvw1x6Ilmz/TLCedfJ60x1qXOvcJy2eoWLpNRFgPDCdluGpsV5Nko73+kobccacu/rKFUnlGHXgumyRbvwwl2XAXue85J7LvHLDEspvmYxtz8ZXrsZYrkzb8oyU3vePzXWfxY7LP19RTjF5uiOghJduPWPgNcm8kdQHH0NpYR5bzf1um9XKj7guTbBxkXmth2rqXHUQk2YQQYnYk2cQQlEo2hBPPJdtnqdsOS5/J5jQJsa7Ulen14KY7J81y37u8ir3DcnQRVk3zUJdSyebT1snAuu9ZPr26Sl96MEva9jibRpNko73+TDdfPteJ9IpjOBhBstxu4Wbo1yy/Y/lfFtYp66WNZKMOuqntj1LJhnBC6p9rqdvnclKK7WMMko16IK7S4axO7nuXV7EnW45FSrZY79zzz+q+Z/ltXnowS9r2OJtGk2SjvfdY4vGUHkwMlffjEccrPx4hAPx4xDptK9moQ046i24MJdmQqDwDLN0/vDdbnWRjvi+3xPm8Vxrn89wyc2Ui0Khjbjio48IMWeUirmS+3IsP+pRs/lk6JNWJ30dZRr34w4sPRc0x9xcfRDhZfNDCdAg2Dh7T6EOycWHJhW8q9STZhBDrgiSbGIISyca53gVUFGgpyyDZpvUoiJKNebio9Hm4GcpJxiZhVkfTPCy3rWSb1i7+OrsMko0bGNb5Jy1pmxBlXO99haV0PQ+FJNswlEg2tnlEWZ2gcpZBsnGsitt4mjjclXlutvi+yX7P0Oe0rmOQbCXtWgbJhgDg5tyH9cZyEGU/aYlDlReFJNswDPnig1wPMu8pVifZ6ubjnMm1QTrMFNIyXcpxbMxN73gPuXdZEHvs2yXzzUuy8cewuD+micM+68RbykIkGzKLk5JPQ0+2UvqQbC7TJNmEEOsKF3h1JzUhutJGsnGh09Sja9Ukm4NQoTeCz8vNe2zLqkm2Erq0uQku6P0ZbLn6pykVd12FoYaLLoY2ko39IxVlkVWTbA5C5Z0Wn5e3qMa2rJpkK4H5S3p8lULb3muZ1g5PqbjjOWys51wZTdFw0cUgybZTsnEcSHvTRcYs2XLLj8xdsnkvMr5DaF1oaUMfkg2J5stHrAkhxLohySaGoI1ka+rJVjeNf87FzRgkW64epVDGSy2UH5/d1kU4Nc3DctpKtnTaaSCJkGxdJVmfko02+BBP/sv1Im1N4aHG9Gqh3lwTloi2oSQb8qRkWKloR1892eqm8c/ZX8Yg2ahHFFdtoAyel8R2GJ9NNwbJ1rZdPuSyTZ0jfUo22uBDPDlncC7J9Z7leOQvL+DYVSLahpJsfUtGsUmTZLvWknsT7tglGzA9dWwzXLREzsVphpZsubLq8HmaerIxDW9vbZqmDcU92bjgYbw4K6wts0o2n59X1nLxzkrlACiEEOuEJJsYAm4kSi7KX2xBLvFw/dx26HJrrJIN/LlyXXtvAe1JpVYX4dQ0T24ZkJNscKelbbsoi7/Y5l6WUEKXNtfhvcJK68LNPXVnPTQ9mwqQbEi5pjeKRkrl2YssbcoVZZRINmD98zvx0oDc8cuFWdoTjH1rDJIN/Lly51m6Lo/2pFJrkZINDlnYN9r0SvOyci+BKKFPyeTCr7R3GnXn5QasB15W0ETJG0Ujpe3ycp9u6WvbFc2SjZcGnMYHAZdhdAoas2TjxQE8p63kxQe5+eLLECIuzIZ+u2jJ89VSml6WANSDFyOM4u2ipcwi2Xw4KBftXBB6WaxsDvpCCLEuSLKJISiVbIgQbgg5B7/O4heenIu54UXy8F0XyUavsK69y1KayvTeW1xXXGyJF898x1+gn2thP6Per7ZQXpyOC0HWQxRdLpzatKNJUrHsNpIttusSS9ouLpa9XU7dMkppqn9bqOOySTaG6PHH32nLF+0olWxsM96D6Bct/juwXSMc2J74rotko1dY+l1XXLLlykTmMESS/fYySzx28B03kuxfbIfU+1UW7oPidAxZYz0wpCuVbG3a0adkc0nl7YrHF75jSBbtisupW0Yp6y7Z6AjD8Wja8kU7cpKN3/tBC9cZr7SwvXJ8oWfjb1s4L/JyizFLNtrgbyR9g+WbLL49IrNoF9vduy1xaCj1oHcbx9abLI+18B0y7IUW9hu+G1qyUQ/eBMox5gcsHOfid6+38MeSWJ7Pk6v7f7Mw3NrrvtKSjYMtF0asPBKHiPrQUV7A0KVnnRBCLCMc/OOJSYg+yEk277WGTIsXGv65Xy/EMC3PTW3zTDZulF3cebwHmsuytr3cXDjlygSuLeraQFwaUW8kFPtdOg3XJbHM3DK9HF/eL1jiuuxTskFpuyLMw/rv0rOvT8lGe7sMFy0Zqkkb+5ZsLvmQgrPe0ItJcpLNe60h0+KNp3+ebuuEabl5ZOhPqWRjP0Z6xX3ee7W5gMv1SGvCRVosM5bB9lzXBuLTUm8kVG4f54Y+9r6rWybbqr9E4AZLvAHtU7LBtJcV5JbDPMjRLs9l61Oy0d4uw0VLlj2EZHPJRy/AVFKI2chJNuCNnfwu6XaNoGF/4JwzZskGlOnCLG0H+ZCFbTwtz3uz5ebh7bhcB3J+HFKygfdMy9WD5MprmifWfSUlGwc2nvlGA5mnTqQxDRe5TMPJUs9pE0KsOpwI05OdELPSRrIBF/0fsPiFGefriyxsm21ffADImijaXF7lyiqlrkyHNsQXGRCXO3E6LljT6Rji9VRLui+my5y3ZIPSdjkuB7sMGe1TsgE3isvy4gMNFR2ONpINuIFku3H5xP5xqYVjWtsXHwAyzaUJ5bm8ypVVSlpmlGxAG+62RIHG/s9xK07H8YjnHcXp6FH59Za0ThwL0mWyTuYl2YCbZ17QEPc/l1bpMsB7kHUZMkr9+5JsQNvea4nruimLfPGBizsNFe2fOskGl1u85xa/Edcs9CRchmeyOUgseq3FYwXHOfZB76GX49st77H4vs0832/hmDL0iw8i32bhOWpR6DNt2ostwjy5uvN8vYW8XXQWSiWb91Dz8AZTDux18OMh4Xz6tMebEEKsEpwA6054QnSFC40+bkoQQFyscIFTOmSyDhdz/FVRNw3DwvPckJlftfGvcvqWbA7ijxuGT1r8ot+DTOFaMderpI6+JRs331yEMzS4rQgQ08lJti7wOz1sQQDlZFobXMzxm9fduIl+4HlunEfim0dL6FuyOT68lW0pPR693/KTFv4QVFrXviUb2zm92N5k6WO/EZM0STYhmhiVZOMCnZMYco2DRin8hQjZxnxCCLGqSLKJIehLsvFXSP7qz43orGIM0cJNzT6Ltvlh4drLpVGb7WAoyTZ26FWFBEBKatvsn74kG88qo3dDfOtmVzgefdxyrkXSf1i4/6N3HNIo9+bGOoaSbGMHacfx+z9adDzqH0k20ZW5SDYhhBCzI8kmhqBUsiFjeBMVciVedHJT9BoL2yc9yvsQYwxX5SHOs/aIE2X4sNF1E2ZtKXlem5iNUsnGcQeBxgs94nGCIUU/Z+G4xrPKEGOzbtOIVXrWztojTpThw0ZzQ1fFNusqFueJJJvoiiSbEEIsCZJsYgjaSDZ68Pi1Qi68sVPbqBCiK20kW24IXwxvtpR8EEJ0RZJNdEWSTQghlgRJNjEEbYaL0uOJB+t/zuLXDPRe4zk6PChWCCFmoc1wUY5HPFifF464bKP3Gi8p+DqLzpdCiFmQZBNdkWQTQoglQZJNDEEbySaEEEPSRrIJIcSQSLKJrmQlm6IoiqIoiqIoiqIoiqIo7SPJpiiKoiiKoiiKoiiKoigzZkOyCSGEEEIIIYQQQgghOnPCCf8/WLFxDc4pYgwAAAAASUVORK5CYII=;" vertex="1" parent="1">
          <mxGeometry x="82" y="540" width="663.06" height="148" as="geometry" />
        </mxCell>
        <mxCell id="v4DfZ5meOXefyViQToht-27" value="맞나..?" style="text;strokeColor=none;align=center;fillColor=none;html=1;verticalAlign=middle;whiteSpace=wrap;rounded=0;" vertex="1" parent="1">
          <mxGeometry x="440" y="700" width="60" height="30" as="geometry" />
        </mxCell>
      </root>
    </mxGraphModel>
  </diagram>
</mxfile>
